<?xml version="1.0" encoding="UTF-8"?>
<svg width="40px" height="43px" viewBox="0 0 40 43" version="1.1" xmlns="http://www.w3.org/2000/svg" xmlns:xlink="http://www.w3.org/1999/xlink">
    <title>4726171A-6254-4D3D-BDD0-1E8D3772A426</title>
    <g id="Design" stroke="none" stroke-width="1" fill="none" fill-rule="evenodd">
        <g id="Assets" transform="translate(-417.000000, -112.000000)" fill-rule="nonzero">
            <g id="pdf" transform="translate(417.666667, 112.000000)">
                <polygon id="Path" fill="#E2E2E2" points="25.8088972 0 34.6666667 8.91866667 34.6666667 42.6666667 2.66666667 42.6666667 2.66666667 0"></polygon>
                <polygon id="Path" fill="#999999" points="35.3333333 9.33333333 26 9.33333333 26 0"></polygon>
                <polygon id="Path" fill="#171C8F" points="31.8548812 34.6666667 0 34.6666667 0 24 38.6666667 24"></polygon>
                <polygon id="Path" fill="#999999" points="2.66666667 37.3333333 2.66666667 34.6666667 0 34.6666667"></polygon>
                <path d="M10,32.6666667 L10,26.6666667 L12.3596916,26.6666667 L12.6508876,26.6666667 C13.4428904,26.6666667 13.9775865,26.8081154 14.2524655,27.091013 C14.5285996,27.3739106 14.6666667,27.9204172 14.6666667,28.7279611 C14.6666667,29.5303615 14.5348754,30.0640091 14.272548,30.3276182 C14.0102205,30.5912273 13.4780348,30.7236748 12.6772458,30.7236748 L12.419939,30.7275325 L11.1120674,30.7275325 L11.1120674,32.6666667 L10,32.6666667 L10,32.6666667 Z M11.1108123,29.7708244 L12.3760086,29.7708244 C12.8793258,29.7708244 13.1993904,29.7103872 13.3349471,29.5920846 C13.4705039,29.4724961 13.5395374,29.1921703 13.5395374,28.7511073 C13.5395374,28.2431776 13.4830554,27.9294185 13.3700914,27.8085441 C13.2571275,27.6863838 12.9634212,27.6259466 12.4889726,27.6259466 L11.1120674,27.6259466 L11.1120674,29.7708244 L11.1108123,29.7708244 Z" id="Shape" fill="#FFFFFF"></path>
                <path d="M16,32.6666667 L16,26.6666667 L19.0166091,26.6666667 C19.8743628,26.6666667 20.4742641,26.8505501 20.8176287,27.217031 C21.1609933,27.5835119 21.3333333,28.225175 21.3333333,29.1420203 C21.3333333,30.6388055 21.1951982,31.6006572 20.9202434,32.0275754 C20.643973,32.4532076 20.021707,32.6666667 19.0534452,32.6666667 L16,32.6666667 L16,32.6666667 Z M17.1642822,31.7086727 L18.8232199,31.7086727 C19.3810229,31.7086727 19.7401743,31.5826547 19.904621,31.3331905 C20.067752,31.0824403 20.1493175,30.5295042 20.1493175,29.6730962 C20.1493175,28.7883983 20.0756455,28.2264609 19.9296168,27.985998 C19.7822727,27.7455351 19.4375925,27.6272325 18.8955764,27.6272325 L17.1642822,27.6272325 L17.1642822,31.7086727 L17.1642822,31.7086727 Z" id="Shape" fill="#FFFFFF"></path>
                <polygon id="Path" fill="#FFFFFF" points="23.1469256 27.6259466 23.1469256 29.2436062 25.8537217 29.2436062 25.8537217 30.2003143 23.1469256 30.2003143 23.1469256 32.6666667 22 32.6666667 22 26.6666667 26 26.6666667 26 27.6259466"></polygon>
            </g>
        </g>
    </g>
</svg>