<?xml version="1.0" encoding="UTF-8"?>
<svg width="26px" height="11px" viewBox="0 0 26 11" version="1.1" xmlns="http://www.w3.org/2000/svg" xmlns:xlink="http://www.w3.org/1999/xlink">
    <title>trade-ar@0.0x</title>
    <g id="All-Plates" stroke="none" stroke-width="1" fill="none" fill-rule="evenodd">
        <g id="Plates" transform="translate(-1181.000000, -222.000000)" fill="#2E339A" fill-rule="nonzero">
            <g id="Trade---Short-Number-Plate" transform="translate(1097.000000, 215.000000)">
                <path d="M106.59,9.55 C106.816667,9.55 107.011667,9.47 107.175,9.31 C107.338333,9.15 107.42,8.96 107.42,8.74 C107.42,8.51333333 107.338333,8.32 107.175,8.16 C107.011667,8 106.816667,7.92 106.59,7.92 C106.376667,7.92 106.188333,8 106.025,8.16 C105.861667,8.32 105.78,8.51333333 105.78,8.74 C105.78,8.96 105.861667,9.15 106.025,9.31 C106.188333,9.47 106.376667,9.55 106.59,9.55 Z M108.79,9.55 C109.003333,9.55 109.191667,9.47 109.355,9.31 C109.518333,9.15 109.6,8.96 109.6,8.74 C109.6,8.51333333 109.52,8.32 109.36,8.16 C109.2,8 109.01,7.92 108.79,7.92 C108.563333,7.92 108.368333,8 108.205,8.16 C108.041667,8.32 107.96,8.51333333 107.96,8.74 C107.96,8.96 108.041667,9.15 108.205,9.31 C108.368333,9.47 108.563333,9.55 108.79,9.55 Z M105.68,15 C106.606667,15 107.31,14.82 107.79,14.46 C108.27,14.1 108.51,13.5666667 108.51,12.86 L108.51,12.86 L108.51,10.3 L106.81,10.5 L106.82,12.43 C106.82,12.7833333 106.74,13.0333333 106.58,13.18 C106.42,13.3266667 106.126667,13.4 105.7,13.4 C105.633333,13.4 105.6,13.4333333 105.6,13.5 L105.6,13.5 L105.58,14.89 C105.58,14.9233333 105.59,14.95 105.61,14.97 C105.63,14.99 105.653333,15 105.68,15 Z M105.68,15 C105.706667,15 105.73,14.99 105.75,14.97 C105.77,14.95 105.78,14.9233333 105.78,14.89 L105.78,14.89 L105.78,13.5 C105.78,13.4333333 105.746667,13.4 105.68,13.4 L105.68,13.4 L105.29,13.4 L104.62,12.07 C104.273333,11.3766667 103.905,10.85 103.515,10.49 C103.125,10.13 102.656667,9.95 102.11,9.95 C101.93,9.95 101.733333,9.985 101.52,10.055 C101.306667,10.125 101.046667,10.24 100.74,10.4 L100.74,10.4 L100.74,12 C101.186667,11.8533333 101.533333,11.78 101.78,11.78 C102.106667,11.78 102.396667,11.875 102.65,12.065 C102.903333,12.255 103.146667,12.57 103.38,13.01 L103.38,13.01 L103.58,13.4 L100.24,13.4 C100.206667,13.4 100.18,13.41 100.16,13.43 C100.14,13.45 100.13,13.4733333 100.13,13.5 L100.13,13.5 L100.13,14.89 C100.13,14.9166667 100.14,14.9416667 100.16,14.965 C100.18,14.9883333 100.206667,15 100.24,15 L100.24,15 L105.68,15 Z M102.56,17.56 C102.793333,17.56 102.993333,17.4766667 103.16,17.31 C103.326667,17.1433333 103.41,16.9433333 103.41,16.71 C103.41,16.4766667 103.326667,16.275 103.16,16.105 C102.993333,15.935 102.793333,15.85 102.56,15.85 C102.326667,15.85 102.126667,15.935 101.96,16.105 C101.793333,16.275 101.71,16.4766667 101.71,16.71 C101.71,16.9433333 101.795,17.1433333 101.965,17.31 C102.135,17.4766667 102.333333,17.56 102.56,17.56 Z M100.23,15 C100.256667,15 100.28,14.99 100.3,14.97 C100.32,14.95 100.33,14.9233333 100.33,14.89 L100.33,14.89 L100.32,13.5 C100.32,13.4333333 100.286667,13.4 100.22,13.4 C99.96,13.4 99.785,13.34 99.695,13.22 C99.605,13.1 99.56,12.8666667 99.56,12.52 L99.56,12.52 L99.56,7.7 L97.86,7.89 L97.87,12.96 C97.87,13.6733333 98.0566667,14.1916667 98.43,14.515 C98.8033333,14.8383333 99.4033333,15 100.23,15 Z M93.68,17.15 C94.4066667,17.15 94.9883333,17.0716667 95.425,16.915 C95.8616667,16.7583333 96.1816667,16.5083333 96.385,16.165 C96.5883333,15.8216667 96.69,15.36 96.69,14.78 L96.69,14.78 L96.69,10.4 L94.98,10.6 L94.99,14.6 C94.99,14.9733333 94.8716667,15.25 94.635,15.43 C94.3983333,15.61 94.08,15.7 93.68,15.7 L93.68,15.7 L93.68,17.15 Z M90.69,15 C92.33,15 93.15,14.2866667 93.15,12.86 L93.15,12.86 L93.15,10.3 L91.44,10.5 L91.45,12.43 C91.45,12.77 91.39,13.0166667 91.27,13.17 C91.15,13.3233333 90.9633333,13.4 90.71,13.4 L90.71,13.4 L89.65,13.4 C89.5833333,13.4 89.55,13.4333333 89.55,13.5 L89.55,13.5 L89.53,14.89 C89.53,14.9233333 89.54,14.95 89.56,14.97 C89.58,14.99 89.6033333,15 89.63,15 L89.63,15 L90.69,15 Z M90.37,17.48 C90.5966667,17.48 90.7916667,17.4 90.955,17.24 C91.1183333,17.08 91.2,16.89 91.2,16.67 C91.2,16.4433333 91.1183333,16.25 90.955,16.09 C90.7916667,15.93 90.5966667,15.85 90.37,15.85 C90.15,15.85 89.96,15.9316667 89.8,16.095 C89.64,16.2583333 89.56,16.45 89.56,16.67 C89.56,16.89 89.6416667,17.08 89.805,17.24 C89.9683333,17.4 90.1566667,17.48 90.37,17.48 Z M92.57,17.48 C92.7833333,17.48 92.9716667,17.4 93.135,17.24 C93.2983333,17.08 93.38,16.89 93.38,16.67 C93.38,16.45 93.3,16.2583333 93.14,16.095 C92.98,15.9316667 92.79,15.85 92.57,15.85 C92.3433333,15.85 92.1483333,15.93 91.985,16.09 C91.8216667,16.25 91.74,16.4433333 91.74,16.67 C91.74,16.89 91.8216667,17.08 91.985,17.24 C92.1483333,17.4 92.3433333,17.48 92.57,17.48 Z M86.15,8.68 C86.3766667,8.68 86.5716667,8.6 86.735,8.44 C86.8983333,8.28 86.98,8.09 86.98,7.87 C86.98,7.64333333 86.8983333,7.45 86.735,7.29 C86.5716667,7.13 86.3766667,7.05 86.15,7.05 C85.93,7.05 85.74,7.13 85.58,7.29 C85.42,7.45 85.34,7.64333333 85.34,7.87 C85.34,8.09 85.4216667,8.28 85.585,8.44 C85.7483333,8.6 85.9366667,8.68 86.15,8.68 Z M88.35,8.68 C88.5633333,8.68 88.7516667,8.6 88.915,8.44 C89.0783333,8.28 89.16,8.09 89.16,7.87 C89.16,7.64333333 89.08,7.45 88.92,7.29 C88.76,7.13 88.57,7.05 88.35,7.05 C88.1233333,7.05 87.9283333,7.13 87.765,7.29 C87.6016667,7.45 87.52,7.64333333 87.52,7.87 C87.52,8.09 87.6016667,8.28 87.765,8.44 C87.9283333,8.6 88.1233333,8.68 88.35,8.68 Z M89.63,15 C89.6566667,15 89.68,14.99 89.7,14.97 C89.72,14.95 89.73,14.9233333 89.73,14.89 L89.73,14.89 L89.73,13.5 C89.73,13.4333333 89.6966667,13.4 89.63,13.4 C89.3166667,13.4 89.16,13.2266667 89.16,12.88 L89.16,12.88 L89.16,9.42 L87.44,9.62 L87.44,10.2 C86.48,10.3533333 85.7366667,10.6783333 85.21,11.175 C84.6833333,11.6716667 84.42,12.2966667 84.42,13.05 C84.42,13.6366667 84.5916667,14.1083333 84.935,14.465 C85.2783333,14.8216667 85.7266667,15 86.28,15 C86.62,15 86.915,14.9483333 87.165,14.845 C87.415,14.7416667 87.65,14.5833333 87.87,14.37 C88.2233333,14.79 88.81,15 89.63,15 Z M86.74,13.4 C86.5133333,13.4 86.3316667,13.34 86.195,13.22 C86.0583333,13.1 85.99,12.9366667 85.99,12.73 C85.99,12.4433333 86.115,12.2 86.365,12 C86.615,11.8 86.9766667,11.6566667 87.45,11.57 L87.45,11.57 L87.45,12.93 C87.45,13.0566667 87.3783333,13.1666667 87.235,13.26 C87.0916667,13.3533333 86.9266667,13.4 86.74,13.4 Z" id="trade-ar"></path>
            </g>
        </g>
    </g>
</svg>