<?xml version="1.0" encoding="utf-8"?>
<!-- Generator: Adobe Illustrator 22.0.0, SVG Export Plug-In . SVG Version: 6.00 Build 0)  -->
<svg version="1.1" id="Layer_1" xmlns="http://www.w3.org/2000/svg" xmlns:xlink="http://www.w3.org/1999/xlink" x="0px" y="0px"
	 viewBox="0 0 600 600" style="enable-background:new 0 0 600 600;" xml:space="preserve">
<style type="text/css">
	.st0{fill:#171C8F;}
	.st1{fill:#FFFFFF;}
	.st2{fill:#FEFEFE;}
</style>
<g>
	<g>
		<path class="st0" d="M300,599.5c-80,0-155.2-31.2-211.8-87.7C31.7,455.2,0.5,380,0.5,300c0-80,31.2-155.2,87.7-211.8
			C144.8,31.7,220,0.5,300,0.5c80,0,155.2,31.2,211.8,87.7c56.6,56.6,87.7,131.8,87.7,211.8c0,80-31.2,155.2-87.7,211.8
			C455.2,568.3,380,599.5,300,599.5z"/>
		<path class="st1" d="M300,1c40.4,0,79.5,7.9,116.4,23.5c35.6,15.1,67.6,36.6,95,64.1c27.5,27.5,49,59.4,64.1,95
			c15.6,36.9,23.5,76,23.5,116.4s-7.9,79.5-23.5,116.4c-15.1,35.6-36.6,67.6-64.1,95c-27.5,27.5-59.4,49-95,64.1
			c-36.9,15.6-76,23.5-116.4,23.5s-79.5-7.9-116.4-23.5c-35.6-15.1-67.6-36.6-95-64.1c-27.5-27.5-49-59.4-64.1-95
			C8.9,379.5,1,340.4,1,300s7.9-79.5,23.5-116.4c15.1-35.6,36.6-67.6,64.1-95c27.5-27.5,59.4-49,95-64.1C220.5,8.9,259.6,1,300,1
			 M300,0C134.3,0,0,134.3,0,300s134.3,300,300,300s300-134.3,300-300S465.7,0,300,0L300,0z"/>
	</g>
	<g>
		<path class="st2" d="M243.3,374.3c0-40.3,0-80.6,0-120.9c0-25.5,13.2-45.7,35.3-53.9c25.4-9.3,51-2.9,67.6,17
			c8.2,9.8,11.5,21.2,11.5,33.8c-0.1,42.8-0.1,85.5-0.1,128.3c0,38.6,0.1,77.2,0.2,115.8c0.1,35.6-31.7,61.8-67.5,55.5
			c-4.3-0.7-8.5-1.6-12.6-3.1c-21.6-7.5-33.8-23.7-34.2-46.6c-0.4-20.4-0.1-40.7-0.1-61.1c0-21.6,0-43.2,0-64.8
			C243.4,374.3,243.3,374.3,243.3,374.3z"/>
		<path class="st2" d="M238.5,110.4c0.3-34.4,27.7-61.4,62.2-61.2c34.1,0.2,61.1,27.8,60.8,62c-0.4,34.5-27.9,61.4-62.3,61.1
			C265.6,172,238.3,144.1,238.5,110.4z"/>
	</g>
</g>
</svg>
