<?xml version="1.0" encoding="UTF-8"?>
<svg width="50px" height="40px" viewBox="0 0 50 40" version="1.1" xmlns="http://www.w3.org/2000/svg" xmlns:xlink="http://www.w3.org/1999/xlink">
    <title>CC-left@0.0x</title>
    <g id="All-Plates" stroke="none" stroke-width="1" fill="none" fill-rule="evenodd">
        <g id="Plates" transform="translate(-52.000000, -63.000000)">
            <g id="C.C.---Long-Number-Plate" transform="translate(50.000000, 61.000000)">
                <g id="CC-left" transform="translate(2.000000, 2.000000)">
                    <path d="M2,0 L50,0 L50,0 C45.3333333,1.33333333 43,3.66666667 43,7 C43,12 43,28 43,33 C43,36.3333333 45.3333333,38.6666667 50,40 L2,40 C0.8954305,40 1.91162759e-15,39.1045695 0,38 L0,2 C-1.3527075e-16,0.8954305 0.8954305,-2.41183085e-16 2,0 Z" id="Rectangle" fill="#FFB800"></path>
                    <path d="M17.1326624,34.2001953 C17.9692509,34.2001953 18.6552861,33.9544271 19.1907679,33.4628906 C19.7262496,32.9713542 20.0590947,32.3333333 20.189303,31.5488281 L20.189303,31.5488281 L18.7000452,31.5488281 C18.5991337,31.9199219 18.4721806,32.1982422 18.3191858,32.3837891 C18.0424931,32.7288411 17.6404749,32.9013672 17.1131311,32.9013672 C16.5988082,32.9013672 16.1748173,32.7003581 15.8411585,32.2983398 C15.5074996,31.8963216 15.3406702,31.2916667 15.3406702,30.484375 C15.3406702,29.6770833 15.4985478,29.0528971 15.814303,28.6118164 C16.1300582,28.1707357 16.5613733,27.9501953 17.1082483,27.9501953 C17.6453577,27.9501953 18.0506311,28.1064453 18.3240686,28.4189453 C18.4770634,28.5947266 18.602389,28.8551432 18.7000452,29.2001953 L18.7000452,29.2001953 L20.2039515,29.2001953 C20.181165,28.7509766 20.0151494,28.3033854 19.7059046,27.8574219 C19.1460087,27.063151 18.2605921,26.6660156 17.0496546,26.6660156 C16.1447067,26.6660156 15.399264,26.9622396 14.8133265,27.5546875 C14.1394983,28.235026 13.8025843,29.2034505 13.8025843,30.4599609 C13.8025843,31.6220703 14.0988082,32.5367839 14.6912561,33.2041016 C15.2837041,33.8681641 16.0975061,34.2001953 17.1326624,34.2001953 Z M21.7459313,33.5705244 C22.1528029,33.5705244 22.3562387,33.3655817 22.3562387,32.9556962 C22.3562387,32.783906 22.3019892,32.639994 22.1934901,32.5239602 C22.084991,32.4079265 21.9448463,32.3499096 21.7730561,32.3499096 C21.3481013,32.3499096 21.1356239,32.5563593 21.1356239,32.9692586 C21.1356239,33.1500904 21.1921338,33.2955093 21.3051537,33.4055154 C21.4181736,33.5155214 21.5650995,33.5705244 21.7459313,33.5705244 Z M27.2792969,34.2001953 C28.1158854,34.2001953 28.8019206,33.9544271 29.3374023,33.4628906 C29.8728841,32.9713542 30.2057292,32.3333333 30.3359375,31.5488281 L30.3359375,31.5488281 L28.8466797,31.5488281 C28.7457682,31.9199219 28.6188151,32.1982422 28.4658203,32.3837891 C28.1891276,32.7288411 27.7871094,32.9013672 27.2597656,32.9013672 C26.7454427,32.9013672 26.3214518,32.7003581 25.987793,32.2983398 C25.6541341,31.8963216 25.4873047,31.2916667 25.4873047,30.484375 C25.4873047,29.6770833 25.6451823,29.0528971 25.9609375,28.6118164 C26.2766927,28.1707357 26.7080078,27.9501953 27.2548828,27.9501953 C27.7919922,27.9501953 28.1972656,28.1064453 28.4707031,28.4189453 C28.6236979,28.5947266 28.7490234,28.8551432 28.8466797,29.2001953 L28.8466797,29.2001953 L30.3505859,29.2001953 C30.3277995,28.7509766 30.1617839,28.3033854 29.8525391,27.8574219 C29.2926432,27.063151 28.4072266,26.6660156 27.1962891,26.6660156 C26.2913411,26.6660156 25.5458984,26.9622396 24.9599609,27.5546875 C24.2861328,28.235026 23.9492188,29.2034505 23.9492188,30.4599609 C23.9492188,31.6220703 24.2454427,32.5367839 24.8378906,33.2041016 C25.4303385,33.8681641 26.2441406,34.2001953 27.2792969,34.2001953 Z M31.8925658,33.5705244 C32.2994374,33.5705244 32.5028732,33.3655817 32.5028732,32.9556962 C32.5028732,32.783906 32.4486236,32.639994 32.3401245,32.5239602 C32.2316254,32.4079265 32.0914808,32.3499096 31.9196905,32.3499096 C31.4947357,32.3499096 31.2822583,32.5563593 31.2822583,32.9692586 C31.2822583,33.1500904 31.3387683,33.2955093 31.4517882,33.4055154 C31.5648081,33.5155214 31.7117339,33.5705244 31.8925658,33.5705244 Z" id="C.C." fill="#000000" fill-rule="nonzero"></path>
                    <path d="M10.5551537,21.3616637 L11.2531646,21.954792 L10.7432188,22.5551537 L10.074141,22.0018083 L9.61482821,22.5551537 L8.92766727,21.9728752 L9.43399638,21.3688969 L10.0958409,21.925859 L10.5551537,21.3616637 Z M8.05244123,20.6383363 L7.93168575,20.6332128 C7.74214721,20.6161342 7.61121157,20.5563593 7.53887884,20.4538879 C7.42073538,20.2537673 7.34116938,19.9330922 7.30018083,19.4918626 C7.30018083,19.4267631 7.28526221,19.3731917 7.25542495,19.3311483 L7.22061483,19.2929476 L6.60578662,20.1139241 L6.46473779,20.1320072 L6.40771996,20.1276315 C6.23435954,20.1042946 5.89049628,19.9876097 5.3761302,19.7775769 C5.1880651,19.6955998 5.09403255,19.5883062 5.09403255,19.4556962 C5.09403255,19.3761302 5.2543701,18.9614225 5.57504521,18.2115732 C5.71006631,17.9308151 6.02035288,17.7195916 6.50590494,17.5779028 L6.69620253,17.5280289 L7.06148282,17.4412297 L7.01446655,16.8951175 L7.65822785,16.2622061 L7.65822785,19.0614828 L7.66450045,19.1631442 C7.68597423,19.3527916 7.76101944,19.4603865 7.88963608,19.485929 L7.95840868,19.4918626 L10.6998192,19.4918626 L10.7346293,19.4834991 C10.7644665,19.4667722 10.7793852,19.4249548 10.7793852,19.358047 C10.7793852,19.2929476 10.7106691,19.1320072 10.5732369,18.875226 C10.4358047,18.6184448 10.3116335,18.4442435 10.2007233,18.3526221 L10.2007233,18.3526221 L10.8444846,17.4231465 L10.9358232,17.5350777 C11.1131122,17.7720043 11.2580728,18.0873159 11.3707052,18.4810127 C11.5021097,18.9403255 11.5678119,19.2772755 11.5678119,19.4918626 L11.5669005,19.4890488 L13.9,19.49 L13.8999005,19.4910488 L14.7359855,19.4918626 L14.7359855,15.9403255 L15.4954792,15.2857143 L15.4954792,19.4918626 L16.0705244,19.4918626 L16.0699005,19.4960488 L16.1943965,19.4971157 C16.682882,19.4977125 16.9490054,19.4622061 16.9927667,19.3905967 C17.0313442,19.3471971 17.0506329,19.2338758 17.0506329,19.0506329 C17.0506329,18.9077758 17.0445298,18.7927215 17.0323237,18.7054702 L17.0180832,18.6274864 L17.6980108,17.9367089 L17.7072534,17.9845288 C17.7131471,18.0193557 17.7185051,18.0600764 17.7233273,18.1066908 C17.7305606,18.1766124 17.7329717,18.2597951 17.7305606,18.3562387 C17.7305606,18.4406269 17.7203134,18.5449066 17.6998192,18.6690778 C17.6793249,18.7932489 17.6570223,18.9047619 17.6329114,19.0036166 C17.6088005,19.1024714 17.5858951,19.1826401 17.5641953,19.244123 C17.5424955,19.3056058 17.5316456,19.3471971 17.5316456,19.3688969 C17.5388788,19.4002411 17.5907173,19.4315853 17.6871609,19.4629295 C17.7785886,19.4926435 18.0931981,19.5082732 18.6309894,19.5098186 L18.6329114,19.4918626 L18.8981208,19.4933808 C19.1383492,19.4493295 19.400157,19.3174189 19.6835443,19.0976492 C20.0042194,18.8589512 20.2501507,18.6696805 20.4213382,18.5298373 C21.2266426,17.8282098 21.7643159,17.477396 22.034358,17.477396 C22.2923448,17.477396 22.5732369,17.5473177 22.8770344,17.6871609 C23.6485835,18.1717902 24.034358,18.6250753 24.034358,19.0470163 C24.0327507,19.1386377 24.0220347,19.2345456 24.0022102,19.3347398 L23.965642,19.4882459 L24.2585895,19.4918626 L26.4141049,19.4918626 C26.4671489,19.4918626 26.4936709,19.4472574 26.4936709,19.358047 C26.4936709,19.2929476 26.4249548,19.1320072 26.2875226,18.875226 C26.1500904,18.6184448 26.0259192,18.4442435 25.915009,18.3526221 L25.915009,18.3526221 L26.5587703,17.4231465 C26.7781796,17.6690778 26.9535865,18.0216998 27.084991,18.4810127 C27.2163954,18.9403255 27.2820976,19.2772755 27.2820976,19.4918626 L27.2820976,19.4918626 L27.3999005,19.4910488 L27.4,19.49 L34.4,19.49 L34.3999005,19.4910488 L36.5786618,19.4918626 L35.6202532,19.0470163 L35.5007346,18.988811 C35.2404498,18.8479882 35.1103074,18.6720916 35.1103074,18.4611212 C35.1103074,18.2248342 35.2983725,17.8499096 35.6745027,17.3363472 C35.9903556,16.8902954 36.2603978,16.6672694 36.4846293,16.6672694 C36.7667269,16.6672694 37.0620856,16.9541893 37.3707052,17.5280289 C37.4575045,17.7088608 37.5207957,17.9306811 37.5605787,18.1934901 C37.6003617,18.456299 37.6202532,18.694997 37.6202532,18.9095841 C37.6178421,19.9632309 37.4984931,20.5165763 37.2622061,20.5696203 C37.0216998,20.6039783 36.7649186,20.6254521 36.4918626,20.6340416 L36.2133816,20.6383363 L34.3999005,20.6380488 L34.4,20.64 L27.4,20.64 L27.3999005,20.6380488 L23.6726944,20.6383363 L23.4918626,20.4502712 L23.4701627,20.4855335 L23.4484629,20.5189873 C23.4091966,20.5871868 23.2884452,20.6261579 23.0862088,20.6359007 L22.9783002,20.6383363 L18.3743219,20.6383363 L18.1517857,20.6340416 C17.6491486,20.6139994 17.2628089,20.5238095 16.9927667,20.363472 C16.7657223,20.5161744 16.5177483,20.6052508 16.2488447,20.6307012 L16.084991,20.6383363 L13.8999005,20.6380488 L13.9,20.64 L10.9,20.64 L10.8999005,20.6380488 L8.05244123,20.6383363 Z M22.084991,18.5732369 C21.4942737,18.5732369 20.9770946,18.7239301 20.5334539,19.0253165 C20.2678541,19.2278602 20.1074983,19.3834605 20.0523863,19.4921176 L20.4014467,19.4918626 L20.4000739,19.6011614 C20.4289984,19.6026949 20.4595947,19.6042366 20.4918626,19.6057866 C20.7679325,19.6190476 21.3170585,19.6256781 22.1392405,19.6256781 C22.9975889,19.6256781 23.4267631,19.5364678 23.4267631,19.358047 C23.4267631,19.2182037 23.2362869,19.0506329 22.8553345,18.8553345 C22.4936709,18.6672694 22.2368897,18.5732369 22.084991,18.5732369 Z M7.09403255,17.8137432 C6.4623267,18.0018083 5.99578059,18.2561784 5.69439421,18.5768535 C6.03676914,18.7649186 6.28450874,18.893912 6.43761302,18.9638336 C6.5907173,19.0337553 6.74804099,19.0687161 6.90958409,19.0687161 C7.1217601,19.0687161 7.22182037,19.0180832 7.20976492,18.9168174 C7.15913201,18.2007233 7.12055455,17.8330319 7.09403255,17.8137432 Z M36.3146474,17.4303797 C36.2833032,17.4303797 36.2380952,17.4418324 36.1790235,17.4647378 C36.1199518,17.4876432 36.0361664,17.5316456 35.9276673,17.596745 C35.8191682,17.6618445 35.7432188,17.7305606 35.6998192,17.8028933 C35.6708861,17.8511151 35.6494542,17.8923716 35.6355234,17.9266626 L35.6202532,17.9728752 L37.0560579,18.7793852 C37.0632911,18.7697408 37.0669078,18.7540687 37.0669078,18.7323689 C37.0669078,18.5804702 36.9801085,18.3128391 36.8065099,17.9294756 C36.6112116,17.596745 36.4472574,17.4303797 36.3146474,17.4303797 Z M25.2169982,15.3327306 L26.0886076,15.7088608 L25.7703436,16.4683544 L24.9168174,16.084991 L25.2169982,15.3327306 Z M36.278481,15.3037975 L36.8933092,15.8282098 L36.4448463,16.3562387 L35.8553345,15.8679928 L35.4502712,16.3562387 L34.8426763,15.8426763 L35.2911392,15.3110307 L35.8734177,15.8028933 L36.278481,15.3037975 Z M6.56238698,15.1410488 L7.26039783,15.7341772 L6.75045208,16.3345389 L6.08137432,15.7811935 L5.62206148,16.3345389 L4.93490054,15.7522604 L5.44122966,15.1482821 L6.10307414,15.7052441 L6.56238698,15.1410488 Z" id="قنصلية" fill="#000000" fill-rule="nonzero"></path>
                    <path d="M28.3471971,10.9457505 C28.4581073,10.9457505 28.5641953,10.8179626 28.6654611,10.562387 C28.7667269,10.3068113 28.835443,10.0952381 28.8716094,9.92766727 C28.9077758,9.76009644 28.9258735,9.63893912 28.9258735,9.5641953 C28.92827,8.72272453 28.6305003,7.97106691 28.0325497,7.30922242 C27.4345992,6.64737794 26.9825196,6.3164557 26.676311,6.3164557 C26.6015672,6.3164557 26.4846293,6.45991561 26.3254973,6.74683544 L26.3254973,6.74683544 L26.0650995,7.16636528 L26.4593128,7.59674503 C26.1699819,7.74623267 25.9144063,7.95599759 25.6925859,8.22603978 C25.4707655,8.49608198 25.3381555,8.84327908 25.2947559,9.2676311 L25.2947559,9.2676311 L25.283906,9.49186257 L23.9385172,9.49186257 L23.9385172,10.6383363 L24.9367089,10.6383363 C25.4767932,10.6383363 26.0253165,10.5165763 26.5822785,10.2730561 L26.5822785,10.2730561 L27.4647378,10.6130199 C28.0024111,10.8348403 28.2965642,10.9457505 28.3471971,10.9457505 Z M28.3616637,9.94394213 C28.1012658,9.83062086 27.8131404,9.73116335 27.4972875,9.64556962 C27.1814346,9.55997589 27.0235081,9.50150693 27.0235081,9.47016275 C27.2622061,9.12778782 27.3815552,8.80349608 27.3815552,8.49728752 C27.3815552,8.45147679 27.3827607,8.37311634 27.3851718,8.26220615 C27.3857746,8.2344786 27.3862266,8.20931284 27.386528,8.18670886 L27.386528,8.0818264 L27.386528,8.0818264 L27.3851718,8.05244123 L27.4141049,8.03797468 C27.5298373,8.03797468 27.7299578,8.2212176 28.0144665,8.58770344 C28.3013864,9.1350211 28.424352,9.54611212 28.3833635,9.82097649 C28.3833635,9.8716094 28.3761302,9.91259795 28.3616637,9.94394213 Z M26.8245931,9.35443038 C26.716094,9.39783002 26.4966847,9.39783002 26.1663653,9.35443038 C25.8360458,9.31103074 25.6708861,9.24713683 25.6708861,9.16274864 C25.6708861,8.92887281 25.7944545,8.68957203 26.0415913,8.44484629 C26.2887281,8.20012055 26.5352622,8.08499096 26.7811935,8.0994575 C26.8438819,8.0994575 26.8981314,8.13984328 26.9439421,8.22061483 C26.9897529,8.30138638 27.0126582,8.49367089 27.0126582,8.79746835 C27.0126582,8.96142254 26.9499699,9.14707655 26.8245931,9.35443038 Z M24.1555154,10.6383363 L24.1555154,9.49186257 L23.8734177,9.49186257 C23.8734177,9.27727547 23.8077155,8.9403255 23.676311,8.48101266 C23.5449066,8.02169982 23.3694997,7.66907776 23.1500904,7.42314647 L23.1500904,7.42314647 L22.5063291,8.35262206 C22.6172393,8.44424352 22.7414105,8.61844485 22.8788427,8.87522604 C23.0162749,9.13200723 23.084991,9.29294756 23.084991,9.35804702 C23.084991,9.44725738 23.058469,9.49186257 23.005425,9.49186257 L23.005425,9.49186257 L20.6329114,9.49186257 L20.6329114,10.6383363 L24.1555154,10.6383363 Z M23.0488246,12.5551537 L23.5587703,11.954792 L22.8607595,11.3616637 L22.4014467,11.925859 L21.7396022,11.3688969 L21.2332731,11.9728752 L21.920434,12.5551537 L22.3797468,12.0018083 L23.0488246,12.5551537 Z M18.6654611,7.52147378 L18.6907776,7.52079566 C18.6835443,7.52079566 18.7775769,7.44605184 18.9728752,7.2965642 C19.1922845,7.12778782 19.3960217,6.99879445 19.5840868,6.90958409 C19.7094635,6.85412899 19.8842676,6.7986739 20.1084991,6.74321881 L20.1084991,6.74321881 L20.2025316,6.22242315 L19.6564195,6.37432188 C19.5816757,6.39361061 19.5009042,6.40325497 19.4141049,6.40325497 C19.124774,6.40325497 18.9487643,6.3429777 18.8860759,6.22242315 C18.8812538,6.21036769 18.8788427,6.1946956 18.8788427,6.17540687 C18.8788427,6.10789632 18.9162146,6.02411091 18.9909584,5.92405063 C19.0657022,5.82399036 19.1295961,5.77034358 19.1826401,5.76311031 C19.2356841,5.75587703 19.2935503,5.7522604 19.3562387,5.7522604 C19.60217,5.7522604 19.7492465,5.77757685 19.7974684,5.82820976 L19.7974684,5.82820976 L19.9855335,5.32188065 C19.973478,5.32188065 19.9023508,5.30018083 19.7721519,5.25678119 C19.6781193,5.22543701 19.5961423,5.20976492 19.5262206,5.20976492 C19.2947559,5.20976492 19.0626884,5.37432188 18.8300181,5.7034358 C18.5973478,6.03254973 18.4942737,6.33212779 18.5207957,6.60216998 C18.5256178,6.6503918 18.5943339,6.7034358 18.7269439,6.76130199 C18.8402652,6.8119349 18.912598,6.83725136 18.9439421,6.83725136 C18.9246534,6.85412899 18.8716094,6.93851718 18.7848101,7.09041591 C18.6835443,7.27124774 18.6329114,7.39662447 18.6329114,7.46654611 C18.6329114,7.50994575 18.6522001,7.52802893 18.6907776,7.52079566 L18.6654611,7.52147378 Z M20.8499096,10.6383363 L20.8499096,9.49186257 L20.5678119,9.49186257 C20.5678119,9.27727547 20.5021097,8.9403255 20.3707052,8.48101266 C20.2393008,8.02169982 20.0638939,7.66907776 19.8444846,7.42314647 L19.8444846,7.42314647 L19.2007233,8.35262206 C19.3116335,8.44424352 19.4358047,8.61844485 19.5732369,8.87522604 C19.7106691,9.13200723 19.7793852,9.29294756 19.7793852,9.35804702 C19.7793852,9.44725738 19.7528632,9.49186257 19.6998192,9.49186257 L19.6998192,9.49186257 L17.3273056,9.49186257 L17.3273056,10.6383363 L20.8499096,10.6383363 Z M17.5479204,10.6383363 L17.5443038,9.49186257 L16.9584087,9.49186257 C16.7631103,9.49427366 16.66305,9.35081374 16.6582278,9.06148282 L16.6582278,9.06148282 L16.6582278,6.26220615 L16.0144665,6.89511754 L16.0614828,7.44122966 L15.6962025,7.52802893 C15.1006631,7.66787221 14.7269439,7.89572031 14.5750452,8.21157324 C14.2543701,8.96142254 14.0940325,9.3761302 14.0940325,9.4556962 C14.0940325,9.58830621 14.1880651,9.69559976 14.3761302,9.77757685 C14.954792,10.0138638 15.3176612,10.1320072 15.4647378,10.1320072 L15.4647378,10.1320072 L15.6057866,10.1139241 L16.2206148,9.29294756 C16.2736588,9.33875829 16.3001808,9.40506329 16.3001808,9.49186257 C16.3411694,9.93309222 16.4207354,10.2537673 16.5388788,10.4538879 C16.6256781,10.5768535 16.7968656,10.6383363 17.0524412,10.6383363 L17.0524412,10.6383363 L17.5479204,10.6383363 Z M15.9095841,9.06871609 C15.748041,9.06871609 15.5907173,9.03375527 15.437613,8.96383363 C15.2845087,8.893912 15.0367691,8.76491863 14.6943942,8.57685353 C14.9957806,8.25617842 15.4623267,8.00180832 16.0940325,7.81374322 C16.1205546,7.83303195 16.159132,8.20072333 16.2097649,8.91681736 C16.2218204,9.01808318 16.1217601,9.06871609 15.9095841,9.06871609 Z" id="هيئه" fill="#000000" fill-rule="nonzero"></path>
                </g>
            </g>
        </g>
    </g>
</svg>