<svg xmlns="http://www.w3.org/2000/svg" width="35.021" height="40.331" viewBox="0 0 35.021 40.331">
  <g id="Component_1_1" data-name="Component 1 – 1" transform="translate(0.751 0.823)">
    <g id="All-Plates" transform="translate(6.195 29.864)">
      <g id="Plates" transform="translate(-625 -102)">
        <g id="Classic---Short-Number-Plate" transform="translate(613 61)">
          <g id="classic-short-left" transform="translate(1 1)">
            <g id="Group" transform="translate(12.041 41)">
              <g id="كلاسيك">
                <path id="Path" d="M18.021,3.1a.815.815,0,0,0,.589-.223.776.776,0,0,0,.231-.586.653.653,0,0,0-.1-.368,1.069,1.069,0,0,0-.31-.292h0l-.5-.328q-.1-.066-.171-.121t-.069-.09q0-.027.046-.062a.536.536,0,0,1,.149-.067h0l1.16-.379V0L17.636.52a1.04,1.04,0,0,0-.4.236.432.432,0,0,0-.139.3.4.4,0,0,0,.082.24,1.324,1.324,0,0,0,.326.271h0l.551.371a1.376,1.376,0,0,1,.21.166.188.188,0,0,1,.064.123.137.137,0,0,1-.081.116.422.422,0,0,1-.216.048H16.8v.7Z" stroke="#000" stroke-width="0.25"/>
                <path id="Path-2" data-name="Path" d="M17.3,3.1V2.4h-3v.7Z" stroke="#000" stroke-width="0.25"/>
                <circle id="Oval" cx="1" cy="1" r="1" transform="translate(4.55 2.55)"/>
                <circle id="Oval-2" data-name="Oval" cx="1" cy="1" r="1" transform="translate(3.95 2.55)"/>
                <path id="Path-3" data-name="Path" d="M8,3.1V2.4H6v.7Z" stroke="#000" stroke-width="0.25"/>
                <path id="Path-4" data-name="Path" d="M12.767,3.127a1.793,1.793,0,0,0,.562-.088,1.24,1.24,0,0,0,.466-.271.832.832,0,0,0,.272.247.738.738,0,0,0,.361.085h.191V2.4h-.1a.42.42,0,0,1-.155-.027.357.357,0,0,1-.126-.086.435.435,0,0,1-.086-.144.582.582,0,0,1-.033-.208h0V.064h-.545V1.977A.349.349,0,0,1,13.5,2.2a.418.418,0,0,1-.149.125h0L12.515.211h-.6l.924,2.205-.026,0-.046,0a4.822,4.822,0,0,1-.513-.021l-.2-.024h-.016v.709l.229.023Q12.47,3.127,12.767,3.127Z" stroke="#000" stroke-width="0.25"/>
                <path id="Path-5" data-name="Path" d="M10.429,3.111a.859.859,0,0,0,.7-.3,1.311,1.311,0,0,0,.254-.865h0V1.359h-.545v.58a.47.47,0,0,1-.116.33.371.371,0,0,1-.284.127.262.262,0,0,1-.229-.119.5.5,0,0,1-.081-.289h0V1.7H9.577v.289a.447.447,0,0,1-.1.3.327.327,0,0,1-.264.113.263.263,0,0,1-.23-.12.5.5,0,0,1-.082-.288h0V1.7H8.362v.289a.434.434,0,0,1-.1.3A.331.331,0,0,1,8,2.4H7.173v.7H8a.884.884,0,0,0,.38-.074.666.666,0,0,0,.253-.2.607.607,0,0,0,.23.2.72.72,0,0,0,.35.085.822.822,0,0,0,.4-.08.737.737,0,0,0,.237-.207.626.626,0,0,0,.231.2A.714.714,0,0,0,10.429,3.111Z" stroke="#000" stroke-width="0.25"/>
                <path id="Path-6" data-name="Path" d="M4.728,3.1a.75.75,0,0,0,.349-.077.575.575,0,0,0,.231-.21.566.566,0,0,0,.221.2.729.729,0,0,0,.363.088h.193V2.4H5.98a.359.359,0,0,1-.293-.128.513.513,0,0,1-.105-.337h0v-.24H5.037v.24a.489.489,0,0,1-.111.345.371.371,0,0,1-.285.12H4.4v.7Z" stroke="#000" stroke-width="0.25"/>
                <path id="Path-7" data-name="Path" d="M4.7,3.1V2.4H3.2v.7Z" stroke="#000" stroke-width="0.25"/>
                <path id="Path-8" data-name="Path" d="M2,3.1a.721.721,0,0,0,.363-.087.558.558,0,0,0,.217-.2.567.567,0,0,0,.22.2.727.727,0,0,0,.364.088h.191V2.4h-.1a.371.371,0,0,1-.29-.123.494.494,0,0,1-.11-.342h0V.064H2.313V1.932a.5.5,0,0,1-.11.34.364.364,0,0,1-.286.125H.9A.579.579,0,0,1,.63,2.346.16.16,0,0,1,.539,2.2q0-.064.01-.159t.012-.1h0V1.92H.031q0,.021-.018.141A2.325,2.325,0,0,0,0,2.324a.917.917,0,0,0,.071.391.573.573,0,0,0,.194.234.752.752,0,0,0,.281.116A1.753,1.753,0,0,0,.9,3.1H2Z" stroke="#000" stroke-width="0.25"/>
                <path id="Combined-Shape" d="M1.569.652V.828A.792.792,0,0,0,1.3.862Q1.211.9,1.211.955a.075.075,0,0,0,.039.062.322.322,0,0,0,.109.042h0l.164.041a.375.375,0,0,1,.154.072.2.2,0,0,1,.066.164.3.3,0,0,1-.2.265,1.146,1.146,0,0,1-.512.1h0V1.516a1.46,1.46,0,0,0,.377-.041q.15-.041.15-.119A.068.068,0,0,0,1.525,1.3a.394.394,0,0,0-.108-.041h0l-.148-.037A.325.325,0,0,1,1.1,1.131.236.236,0,0,1,1.039.959.254.254,0,0,1,1.175.737.747.747,0,0,1,1.569.652Z" stroke="#000" stroke-width="0.25"/>
              </g>
            </g>
          </g>
        </g>
      </g>
    </g>
    <g id="All-Plates-2" data-name="All-Plates" transform="translate(6.365 35.413)">
      <g id="Plates-2" data-name="Plates" transform="translate(-625 -107)">
        <g id="Classic---Short-Number-Plate-2" data-name="Classic---Short-Number-Plate" transform="translate(613 61)">
          <g id="classic-short-left-2" data-name="classic-short-left" transform="translate(1 1)">
            <g id="Group-2" data-name="Group" transform="translate(12.071 46)">
              <g id="CLASSIC">
                <path id="Path_1" data-name="Path 1" d="M1.268,2.92a1.127,1.127,0,0,0,.818-.328,1.265,1.265,0,0,0,.252-.356A1.753,1.753,0,0,0,2.48,1.8H2a1.207,1.207,0,0,1-.088.27.89.89,0,0,1-.154.232.76.76,0,0,1-.216.164.6.6,0,0,1-.274.062.681.681,0,0,1-.29-.066.725.725,0,0,1-.254-.2,1.075,1.075,0,0,1-.182-.344,1.532,1.532,0,0,1-.07-.488A1.322,1.322,0,0,1,.53,1.032,1.051,1.051,0,0,1,.694.7.848.848,0,0,1,.944.48.623.623,0,0,1,1.264.4.715.715,0,0,1,1.722.54a.942.942,0,0,1,.286.44h.484A1.712,1.712,0,0,0,2.328.588a1.182,1.182,0,0,0-.256-.31,1.15,1.15,0,0,0-.352-.2A1.308,1.308,0,0,0,1.264,0,1.154,1.154,0,0,0,.73.12a1.231,1.231,0,0,0-.4.318A1.427,1.427,0,0,0,.086.892,1.647,1.647,0,0,0,0,1.42a2.056,2.056,0,0,0,.09.634,1.358,1.358,0,0,0,.254.47,1.084,1.084,0,0,0,.4.294A1.307,1.307,0,0,0,1.268,2.92Zm3.876-.076v-.4H3.828V.076H3.356V2.844Zm1.144,0,.288-.8h.98l.292.8H8.34L7.332.076h-.52L5.792,2.844Zm1.124-1.2H6.72L7.068.692ZM10.124,2.92a1.51,1.51,0,0,0,.414-.054.944.944,0,0,0,.328-.162.762.762,0,0,0,.216-.266.826.826,0,0,0,.078-.37.638.638,0,0,0-.086-.34.832.832,0,0,0-.22-.238,1.281,1.281,0,0,0-.3-.162q-.168-.064-.336-.116-.116-.036-.228-.076a1.069,1.069,0,0,1-.2-.094A.5.5,0,0,1,9.646.916.272.272,0,0,1,9.592.748.286.286,0,0,1,9.636.586.354.354,0,0,1,9.75.478a.5.5,0,0,1,.158-.06A.9.9,0,0,1,10.088.4a.533.533,0,0,1,.19.034.482.482,0,0,1,.162.1A.515.515,0,0,1,10.556.7a.72.72,0,0,1,.056.23h.476a1.413,1.413,0,0,0-.064-.316.876.876,0,0,0-.166-.3.865.865,0,0,0-.3-.224A1.1,1.1,0,0,0,10.088,0,1.5,1.5,0,0,0,9.7.052a.913.913,0,0,0-.306.142.644.644,0,0,0-.2.234.706.706,0,0,0-.07.32.692.692,0,0,0,.086.36.78.78,0,0,0,.222.24,1.247,1.247,0,0,0,.306.156q.17.06.338.112l.224.074a1,1,0,0,1,.2.09.5.5,0,0,1,.14.122.264.264,0,0,1,.054.166.416.416,0,0,1-.048.206.411.411,0,0,1-.126.14.553.553,0,0,1-.18.08.863.863,0,0,1-.214.026.561.561,0,0,1-.234-.048.555.555,0,0,1-.184-.134.684.684,0,0,1-.126-.2.881.881,0,0,1-.06-.258H9.044a1.086,1.086,0,0,0,.1.434,1.043,1.043,0,0,0,.242.33,1.057,1.057,0,0,0,.342.208A1.119,1.119,0,0,0,10.124,2.92Zm2.952,0a1.51,1.51,0,0,0,.414-.054.944.944,0,0,0,.328-.162.762.762,0,0,0,.216-.266.826.826,0,0,0,.078-.37.638.638,0,0,0-.086-.34.832.832,0,0,0-.22-.238,1.28,1.28,0,0,0-.3-.162q-.168-.064-.336-.116-.116-.036-.228-.076a1.069,1.069,0,0,1-.2-.094A.5.5,0,0,1,12.6.916a.272.272,0,0,1-.054-.168.286.286,0,0,1,.044-.162A.353.353,0,0,1,12.7.478a.5.5,0,0,1,.158-.06A.9.9,0,0,1,13.04.4a.533.533,0,0,1,.19.034.482.482,0,0,1,.162.1A.515.515,0,0,1,13.508.7a.72.72,0,0,1,.056.23h.476a1.413,1.413,0,0,0-.064-.316.876.876,0,0,0-.166-.3.865.865,0,0,0-.3-.224A1.1,1.1,0,0,0,13.04,0a1.5,1.5,0,0,0-.39.048.912.912,0,0,0-.306.142.645.645,0,0,0-.2.234.706.706,0,0,0-.07.32.692.692,0,0,0,.086.36.779.779,0,0,0,.222.24,1.248,1.248,0,0,0,.306.156q.17.06.338.112l.224.074a1,1,0,0,1,.2.09.5.5,0,0,1,.14.122.264.264,0,0,1,.054.166.416.416,0,0,1-.048.206.411.411,0,0,1-.126.14.553.553,0,0,1-.18.08.863.863,0,0,1-.214.026.561.561,0,0,1-.234-.048.554.554,0,0,1-.184-.134.684.684,0,0,1-.126-.2.881.881,0,0,1-.06-.258H12a1.086,1.086,0,0,0,.1.434,1.042,1.042,0,0,0,.242.33,1.057,1.057,0,0,0,.342.208A1.119,1.119,0,0,0,13.076,2.92Zm2.4-.076V.076h-.468V2.844Zm2.144.076a1.127,1.127,0,0,0,.818-.328,1.264,1.264,0,0,0,.252-.356,1.753,1.753,0,0,0,.142-.44h-.48a1.209,1.209,0,0,1-.088.27.889.889,0,0,1-.154.232.761.761,0,0,1-.216.164.6.6,0,0,1-.274.062.681.681,0,0,1-.29-.066.725.725,0,0,1-.254-.2,1.075,1.075,0,0,1-.182-.344,1.531,1.531,0,0,1-.07-.488,1.321,1.321,0,0,1,.058-.392A1.051,1.051,0,0,1,17.046.7.849.849,0,0,1,17.3.48.623.623,0,0,1,17.616.4a.715.715,0,0,1,.458.144.942.942,0,0,1,.286.44h.484A1.713,1.713,0,0,0,18.68.588a1.182,1.182,0,0,0-.256-.31,1.15,1.15,0,0,0-.352-.2A1.308,1.308,0,0,0,17.616,0a1.154,1.154,0,0,0-.534.12,1.231,1.231,0,0,0-.4.318,1.427,1.427,0,0,0-.248.454,1.648,1.648,0,0,0-.086.528,2.056,2.056,0,0,0,.09.634,1.358,1.358,0,0,0,.254.47,1.084,1.084,0,0,0,.4.294A1.307,1.307,0,0,0,17.62,2.92Z" stroke="#000" stroke-width="0.35"/>
              </g>
            </g>
          </g>
        </g>
      </g>
    </g>
    <g id="All-Plates-3" data-name="All-Plates" transform="translate(-1.605 -3)">
      <g id="Plates-3" data-name="Plates" transform="translate(-617 -69)">
        <g id="Classic---Short-Number-Plate-3" data-name="Classic---Short-Number-Plate" transform="translate(613 61)">
          <g id="classic-short-left-3" data-name="classic-short-left" transform="translate(1 1)">
            <g id="Group-3" data-name="Group" transform="translate(3.605 10)">
              <g id="Dubai" transform="translate(1)">
                <path id="Line-5" d="M32.786,2.7q1.218,1.982.4,2.8t-3.5,1" fill="none" stroke="#000" stroke-linecap="round" stroke-width="1.5" fill-rule="evenodd"/>
                <path id="Line-6" d="M23.687,0a39.41,39.41,0,0,1-.5,4c-.115.244-3.5-.5-2.5.5.436.436,3.5,1,3.5,2s-1,1.8-5,1.8h-13C2.851,8.3-.127,7.989,0,6.532Q.187,4.5,9.187,1.5" fill="none" stroke="#000" stroke-linecap="round" stroke-width="1.5" fill-rule="evenodd"/>
                <rect id="Rectangle" width="2" height="2" rx="0.5" transform="translate(24.987 10.5) rotate(-45)"/>
                <path id="Rectangle-2" data-name="Rectangle" d="M16.477,10.5h2.859a.5.5,0,0,1,.483.629l-.136.51a.5.5,0,0,1-.47.371l-2.869.074a.5.5,0,0,1-.5-.621l.146-.583A.5.5,0,0,1,16.477,10.5Z" fill-rule="evenodd"/>
              </g>
            </g>
          </g>
        </g>
      </g>
    </g>
    <g id="All-Plates-4" data-name="All-Plates" transform="translate(1.217 15.52)">
      <g id="Plates-4" data-name="Plates" transform="translate(-620 -87)">
        <g id="Classic---Short-Number-Plate-4" data-name="Classic---Short-Number-Plate" transform="translate(613 61)">
          <g id="classic-short-left-4" data-name="classic-short-left" transform="translate(1 1)">
            <g id="DUBAI-2" data-name="DUBAI" transform="translate(7.041 25.555)">
              <path id="Path_2" data-name="Path 2" d="M8.5.081V7.989a2.919,2.919,0,0,0,.477,1.682,1.463,1.463,0,0,0,1.241.645A1.521,1.521,0,0,0,11.5,9.689,2.665,2.665,0,0,0,11.974,8.2h0L11.981.081h1.307V8.12a4.337,4.337,0,0,1-.818,2.752,2.75,2.75,0,0,1-2.242,1,2.727,2.727,0,0,1-2.251-.981A4.135,4.135,0,0,1,7.2,8.379h0l0-8.3ZM2.088,0A3.343,3.343,0,0,1,4.961,1.492,6.637,6.637,0,0,1,6.01,5.414,8.343,8.343,0,0,1,4.94,10.1a3.592,3.592,0,0,1-2.983,1.574l-.25.006H-.075V.085C1.166.026,1.8,0,2.088,0ZM2.019,1.559q-.152,0-.786.07h0l.16,8.45.163.018q.253.023.561.023a1.884,1.884,0,0,0,1.044-.3,2.491,2.491,0,0,0,.8-.9,6.932,6.932,0,0,0,.684-3.381,5.48,5.48,0,0,0-.663-3.005A2.2,2.2,0,0,0,2.019,1.559Zm14.5-1.58a2.613,2.613,0,0,1,2,.754,3,3,0,0,1,.709,2.141,2.628,2.628,0,0,1-.452,1.495,2.155,2.155,0,0,1-.821.775A2.555,2.555,0,0,1,19.273,6.2a4.035,4.035,0,0,1,.471,2.1,3.507,3.507,0,0,1-.838,2.457,2.749,2.749,0,0,1-1.76.9l-.216.019-2.71.006V.086C15.442.008,16.1-.02,16.522-.02Zm-.3,5.963-.853.036.185,4.252.156.017q.3.03.494.03a1.978,1.978,0,0,0,1.532-.526,2.489,2.489,0,0,0,.481-1.7,2.342,2.342,0,0,0-.458-1.6,1.986,1.986,0,0,0-1.538-.506Zm.1-4.516c-.273,0-.525.009-.957.048h0l.146,3.169.206.013q.216.011.472.011a1.513,1.513,0,0,0,1.177-.427,1.882,1.882,0,0,0,.391-1.3A1.6,1.6,0,0,0,17.408,1.8,1.422,1.422,0,0,0,16.33,1.427Zm7.422-1.5,3.095,11.752H25.406l-.584-2.414H21.787l-.625,2.414H19.709L23.038-.075ZM23.345,3.31,22.132,7.964h2.324ZM29.075.081v11.6H27.768V.081Z" stroke="#000" stroke-width="0.15"/>
            </g>
          </g>
        </g>
      </g>
    </g>
  </g>
</svg>
