<?xml version="1.0" encoding="utf-8"?>
<!-- Generator: Adobe Illustrator 22.0.0, SVG Export Plug-In . SVG Version: 6.00 Build 0)  -->
<svg version="1.1" id="Layer_1" xmlns="http://www.w3.org/2000/svg" xmlns:xlink="http://www.w3.org/1999/xlink" x="0px" y="0px"
	 viewBox="0 0 600 600" style="enable-background:new 0 0 600 600;" xml:space="preserve">
<style type="text/css">
	.st0{fill:#53565A;}
</style>
<title>ant-design:calendar-outline</title>
<desc>Created with Sketch.</desc>
<path class="st0" d="M548.8,53.5h-97.6V26.8c0-14.2-12.6-26.8-26.8-26.8s-26.8,12.6-26.8,26.8v26.8h-178V26.8
	c0-14.2-12.6-26.8-26.8-26.8c-14.2,0-26.8,12.6-26.8,26.8v26.8h-115c-14.2,0-26.8,12.6-26.8,26.8v492.9c0,14.2,12.6,26.8,26.8,26.8
	h497.6c14.2,0,26.8-12.6,26.8-26.8V78.7C575.6,64.6,563,53.5,548.8,53.5z M522,544.9H78V258.3H522C522,258.3,522,544.9,522,544.9z
	 M522,204.7H78v-99.2h88.2v26.8c0,14.2,12.6,26.8,26.8,26.8c14.2,0,26.8-12.6,26.8-26.8v-26.8h178v26.8c0,14.2,12.6,26.8,26.8,26.8
	s26.8-12.6,26.8-26.8v-26.8H522L522,204.7L522,204.7z"/>
</svg>
