<?xml version="1.0" encoding="UTF-8"?>
<svg width="24px" height="24px" viewBox="0 0 24 24" version="1.1" xmlns="http://www.w3.org/2000/svg" xmlns:xlink="http://www.w3.org/1999/xlink" style="background: #FFFFFF;">
    <title>Components / Icon / 24 / TrashBin@3x</title>
    <g id="Symbols" stroke="none" stroke-width="1" fill="none" fill-rule="evenodd">
        <g id="Components-/-Icon-/-24-/-TrashBin">
            <rect fill="#FFFFFF" x="0" y="0" width="24" height="24"></rect>
            <path d="M13.5333333,4 C14.669462,4 15.5981588,4.90830543 15.6630452,6.05361979 L15.6666667,6.18181818 L15.666,6.909 L18.5111111,6.90909091 C18.9038469,6.90909091 19.2222222,7.234702 19.2222222,7.63636364 C19.2222222,8.00933516 18.9477048,8.31673248 18.5940417,8.35874347 L18.5111111,8.36363636 L17.799,8.363 L17.8,17.8181818 C17.8,18.9801316 16.9118791,19.9299352 15.7920162,19.9962962 L15.6666667,20 L8.55555556,20 C7.41942693,20 6.49073004,19.0916946 6.42584369,17.9463802 L6.42222222,17.8181818 L6.422,8.363 L5.71111111,8.36363636 C5.31837529,8.36363636 5,8.03802527 5,7.63636364 C5,7.26339212 5.27451747,6.95599479 5.62818053,6.9139838 L5.71111111,6.90909091 L8.555,6.909 L8.55555556,6.18181818 C8.55555556,5.01986845 9.44367642,4.07006481 10.5635394,4.00370378 L10.6888889,4 L13.5333333,4 Z M16.377,8.363 L7.844,8.363 L7.84444444,17.8181818 C7.84444444,18.1911533 8.11896191,18.4985507 8.47262498,18.5405616 L8.55555556,18.5454545 L15.6666667,18.5454545 C16.0313499,18.5454545 16.3319162,18.264698 16.3729936,17.9029972 L16.3777778,17.8181818 L16.377,8.363 Z M10.6888889,10.5454545 C11.0535722,10.5454545 11.3541384,10.826211 11.3952158,11.1879119 L11.4,11.2727273 L11.4,15.6363636 C11.4,16.0380253 11.0816247,16.3636364 10.6888889,16.3636364 C10.3242056,16.3636364 10.0236394,16.0828799 9.98256194,15.721179 L9.97777778,15.6363636 L9.97777778,11.2727273 C9.97777778,10.8710656 10.2961531,10.5454545 10.6888889,10.5454545 Z M13.5333333,10.5454545 C13.8980166,10.5454545 14.1985829,10.826211 14.2396603,11.1879119 L14.2444444,11.2727273 L14.2444444,15.6363636 C14.2444444,16.0380253 13.9260692,16.3636364 13.5333333,16.3636364 C13.1686501,16.3636364 12.8680838,16.0828799 12.8270064,15.721179 L12.8222222,15.6363636 L12.8222222,11.2727273 C12.8222222,10.8710656 13.1405975,10.5454545 13.5333333,10.5454545 Z M13.5333333,5.45454545 L10.6888889,5.45454545 C10.3242056,5.45454545 10.0236394,5.73530196 9.98256194,6.09700282 L9.97777778,6.18181818 L9.977,6.909 L14.244,6.909 L14.2444444,6.18181818 C14.2444444,5.80884666 13.969927,5.50144934 13.6162639,5.45943835 L13.5333333,5.45454545 Z" id="Combined-Shape" fill="#171C8F"></path>
        </g>
    </g>
</svg>