<?xml version="1.0" encoding="UTF-8"?>
<svg width="20px" height="20px" viewBox="0 0 20 20" version="1.1" xmlns="http://www.w3.org/2000/svg" xmlns:xlink="http://www.w3.org/1999/xlink">
    <title>0DB27A38-80FC-401B-B7BF-3A284DF91508</title>
    <g id="1-Designs" stroke="none" stroke-width="1" fill="none" fill-rule="evenodd">
        <g id="rta-selling+buying-vehicle-04.2" transform="translate(-281.000000, -853.000000)" fill="#171C8F">
            <g id="Accordion-+-More-Actions" transform="translate(135.000000, 443.000000)">
                <g id="Accordion" transform="translate(64.000000, 104.000000)">
                    <g id="Active" transform="translate(0.000000, 256.000000)">
                        <g id="1" transform="translate(64.000000, 32.000000)">
                            <g id="Group" transform="translate(16.000000, 16.000000)">
                                <g id="Components-/-Icon-/-48-/-Check-Cirle">
                                    <path d="M11.9444444,2 C17.4166667,2 21.8890176,6.47222222 21.8890176,11.9444444 C21.9166667,17.4166667 17.4444444,21.8888889 11.9444444,21.8888889 C6.44444444,21.8888889 2,17.4166667 2,11.9444444 C2,6.44444444 6.47222222,2 11.9444444,2 Z M11.9444444,3.55555556 C7.33333333,3.55555556 3.55555556,7.30555556 3.55555556,11.9444444 C3.55555556,16.5833333 7.30555556,20.3333333 11.9444444,20.3333333 C16.5555556,20.3333333 20.3333333,16.5833333 20.3333333,11.9444444 C20.3333333,7.30555556 16.5833333,3.55555556 11.9444444,3.55555556 Z M16.0277778,8.08333333 L17.2222222,9.27777778 L10.5833333,15.9166667 L6.86111111,12.1944444 L8.02777778,11 L10.5833333,13.5277778 L16.0277778,8.08333333 Z" id="icon"></path>
                                </g>
                            </g>
                        </g>
                    </g>
                </g>
            </g>
        </g>
    </g>
</svg>