<?xml version="1.0" encoding="UTF-8"?>
<svg width="16px" height="16px" viewBox="0 0 16 16" version="1.1" xmlns="http://www.w3.org/2000/svg" xmlns:xlink="http://www.w3.org/1999/xlink">
    <title>0CB02FD4-1A58-4E65-B3E5-9BBA027F8CAB</title>
    <g id="Helpdesk-Flows" stroke="none" stroke-width="1" fill="none" fill-rule="evenodd">
        <g id="RTA-UMS-Helpdesk-04.02" transform="translate(-1340.000000, -537.000000)" fill="#53565A">
            <g id="Components-/-CTA-/-Control-/-Maximize" transform="translate(1336.000000, 533.000000)">
                <g id="Group" transform="translate(4.000000, 4.000000)">
                    <path d="M15,0 C15.5522847,0 16,0.44771525 16,1 L16,6 C16,6.55228475 15.5522847,7 15,7 C14.4477153,7 14,6.55228475 14,6 L13.9998932,3.413 L10,7.41421356 C9.60947571,7.80473785 8.97631073,7.80473785 8.58578644,7.41421356 C8.19526215,7.02368927 8.19526215,6.39052429 8.58578644,6 L12.5858932,1.999 L10,2 C9.44771525,2 9,1.55228475 9,1 C9,0.44771525 9.44771525,-1.55431223e-15 10,-1.77635684e-15 L15,0 L15,0 Z" id="Combined-Shape"></path>
                    <path d="M6.70710678,8.29289322 C7.25939153,8.29289322 7.70710678,8.74060847 7.70710678,9.29289322 L7.70710678,14.2928932 C7.70710678,14.845178 7.25939153,15.2928932 6.70710678,15.2928932 C6.15482203,15.2928932 5.70710678,14.845178 5.70710678,14.2928932 L5.707,11.7058932 L1.70710678,15.7071068 C1.31658249,16.0976311 0.683417511,16.0976311 0.292893219,15.7071068 C-0.0976310729,15.3165825 -0.0976310729,14.6834175 0.292893219,14.2928932 L4.293,10.2918932 L1.70710678,10.2928932 C1.15482203,10.2928932 0.707106781,9.84517797 0.707106781,9.29289322 C0.707106781,8.74060847 1.15482203,8.29289322 1.70710678,8.29289322 L6.70710678,8.29289322 L6.70710678,8.29289322 Z" id="Combined-Shape" transform="translate(3.853553, 12.146447) rotate(-180.000000) translate(-3.853553, -12.146447) "></path>
                </g>
            </g>
        </g>
    </g>
</svg>