<?xml version="1.0" encoding="UTF-8"?>
<svg width="20px" height="32px" viewBox="0 0 20 32" version="1.1" xmlns="http://www.w3.org/2000/svg" xmlns:xlink="http://www.w3.org/1999/xlink">
    <title>F5AA9A98-61C2-44EA-8538-1BA0597747CF</title>
    <g id="1-Designs" stroke="none" stroke-width="1" fill="none" fill-rule="evenodd">
        <g id="rta-drivers-license-05.0" transform="translate(-309.000000, -1224.000000)" fill="#ffffff">
            <g id="Accordion-+-More-Actions" transform="translate(135.000000, 564.000000)">
                <g id="Accordion" transform="translate(64.000000, 120.000000)">
                    <g id="active" transform="translate(0.000000, 264.000000)">
                        <g id="Reminder" transform="translate(64.000000, 236.000000)">
                            <g id="Group" transform="translate(32.000000, 32.000000)">
                                <g id="Components-/-Icon-/-48-/-Attention">
                                    <path d="M26.2238918,15.0596964 C25.4776517,15.0596964 24.8059754,15.3432948 24.2836148,15.8059742 C23.8656963,14.7313372 22.8208999,13.9701392 21.5970224,13.9701392 C20.9104635,13.9701392 20.2835856,14.208939 19.7910657,14.6119373 L19.7910657,10.9999861 C19.7910657,9.34326983 18.4925492,8 16.8955517,8 C15.2985165,8 14,9.34326983 14,10.9999861 L14,26.8656697 C14,26.9104682 14,26.955229 14,27.0149478 C14,27.0298681 14,27.0447884 14,27.0597087 L14,29.8806213 C14,35.46269 18.4627086,40 23.9552556,40 C29.343323,40 33.7164346,35.46269 33.7164346,29.8805836 L33.7164346,23.9253948 C33.7164346,23.9104369 33.7164346,23.8955166 33.7164346,23.8955166 L33.7164346,19.059688 C33.7164346,17.4626905 32.4179181,16.1790942 30.8358409,16.1790942 C30.0895631,16.1790942 29.4179244,16.4626926 28.9104842,16.925372 C28.4925656,15.8358147 27.4477692,15.0596964 26.2238918,15.0596964 Z M23.3283778,16.8656909 L23.3283778,23.5223966 L19.880625,23.5223966 L19.880625,16.8656909 C19.880625,15.9104538 20.6567434,15.1492558 21.5970224,15.1492558 C22.5522595,15.1343355 23.3283778,15.9104538 23.3283778,16.8656909 Z M16.8955517,9.16418878 C17.865709,9.16418878 18.6716679,9.98506795 18.6716679,10.9999861 L18.6716679,23.5074763 L17.4477904,23.5074763 C16.4328723,23.492556 15.6865945,23.6865573 15.1194355,24.1044759 L15.1194355,10.9999861 C15.1194355,9.98506795 15.9253944,9.16418878 16.8955517,9.16418878 Z M23.9552556,38.8358414 C19.0895864,38.8358414 15.1343558,34.8208919 15.1343558,29.8806213 L15.1343558,26.6417901 C15.1940369,25.9403109 15.3880759,25.4477532 15.6865945,25.1492723 C16.0149537,24.8209131 16.597033,24.6567146 17.4477904,24.6716349 L26.3880902,24.6716349 C27.3432896,24.6716349 28.1044876,25.4477532 28.1044876,26.38807 C28.1044876,27.343307 27.3283693,28.1044674 26.3880902,28.1044674 L19.8358265,28.1044674 C19.7761454,28.1044674 19.7164266,28.1194254 19.6567455,28.1343456 C19.5522658,28.1343456 19.5074673,28.1343456 19.492547,28.1343456 C19.1791081,28.1343456 18.9104677,28.3880658 18.9104677,28.716425 C18.9104677,29.0298639 19.1641878,29.2985043 19.492547,29.2985043 C19.686586,29.2985043 24.1492946,29.3731434 25.5522531,34.208972 C25.6418125,34.5224109 25.9701717,34.701492 26.2686903,34.5970123 C26.5224104,34.5224109 26.6866089,34.2985314 26.6866089,34.0447736 C26.6866089,33.9850924 26.6716509,33.9402939 26.6567306,33.8806128 C25.9552514,31.492539 24.5820958,30.0895429 23.2238982,29.283584 L26.3880902,29.283584 C27.9701674,29.283584 29.268684,27.9850675 29.268684,26.4029903 C29.268684,26.3731497 29.268684,26.3432715 29.268684,26.3134309 C29.7164431,26.6119496 30.2537616,26.7761103 30.8358409,26.7761103 C31.4925593,26.7761103 32.1045168,26.5522308 32.5970368,26.1791107 L32.5970368,29.8806213 C32.5970368,34.8208919 28.7164452,38.8358414 23.9552556,38.8358414 Z M32.552276,19.059688 L32.552276,23.8955166 C32.552276,24.8507536 31.7761576,25.6119517 30.8358409,25.6119517 C29.8806038,25.6119517 29.1194435,24.8358334 29.1194435,23.8955166 L29.1194435,19.059688 C29.1194435,18.1044886 29.8955618,17.3432905 30.8358409,17.3432905 C31.7910779,17.3432905 32.552276,18.1044886 32.552276,19.059688 Z M27.9403269,17.9402901 L27.9403269,23.9701557 C27.4925678,23.6865573 26.9552493,23.5074763 26.3880902,23.5074763 L24.5074944,23.5074763 L24.5074944,17.9402901 C24.5074944,16.9850908 25.2836127,16.2238927 26.2238918,16.2238927 C27.1791288,16.2238927 27.9403269,17.0000111 27.9403269,17.9402901 Z" id="Shape"></path>
                                </g>
                            </g>
                        </g>
                    </g>
                </g>
            </g>
        </g>
    </g>
</svg>