<?xml version="1.0" encoding="UTF-8"?>
<svg width="50px" height="40px" viewBox="0 0 50 40" version="1.1" xmlns="http://www.w3.org/2000/svg" xmlns:xlink="http://www.w3.org/1999/xlink">
    <title>CC-right@0.0x</title>
    <g id="All-Plates" stroke="none" stroke-width="1" fill="none" fill-rule="evenodd">
        <g id="Plates" transform="translate(-198.000000, -63.000000)">
            <g id="C.C.---Long-Number-Plate" transform="translate(50.000000, 61.000000)">
                <g id="CC-right" transform="translate(148.000000, 2.000000)">
                    <path d="M2,0 L50,0 L50,0 C45.3333333,1.33333333 43,3.66666667 43,7 C43,12 43,28 43,33 C43,36.3333333 45.3333333,38.6666667 50,40 L2,40 C0.8954305,40 1.91162759e-15,39.1045695 0,38 L0,2 C-1.3527075e-16,0.8954305 0.8954305,-2.41183085e-16 2,0 Z" id="Rectangle" fill="#FFB800" transform="translate(25.000000, 20.000000) scale(-1, 1) translate(-25.000000, -20.000000) "></path>
                    <path d="M18.6756311,34.1855469 C19.9223759,34.1855469 20.7671025,33.7949219 21.2098108,33.0136719 C21.447441,32.5872396 21.5662561,31.9915365 21.5662561,31.2265625 L21.5662561,31.2265625 L21.5662561,26.8027344 L20.0379358,26.8027344 L20.0379358,31.2265625 C20.0379358,31.7213542 19.9793421,32.0826823 19.8621546,32.3105469 C19.6798629,32.7141927 19.2843551,32.9160156 18.6756311,32.9160156 C18.063652,32.9160156 17.6665166,32.7141927 17.4842249,32.3105469 C17.3670374,32.0826823 17.3084436,31.7213542 17.3084436,31.2265625 L17.3084436,31.2265625 L17.3084436,26.8027344 L15.7801233,26.8027344 L15.7801233,31.2265625 C15.7801233,31.9915365 15.8989384,32.5872396 16.1365686,33.0136719 C16.5825322,33.7949219 17.4288864,34.1855469 18.6756311,34.1855469 Z M23.4109703,33.5705244 C23.817842,33.5705244 24.0212778,33.3655817 24.0212778,32.9556962 C24.0212778,32.783906 23.9670282,32.639994 23.8585291,32.5239602 C23.75003,32.4079265 23.6098854,32.3499096 23.4380951,32.3499096 C23.0131403,32.3499096 22.8006629,32.5563593 22.8006629,32.9692586 C22.8006629,33.1500904 22.8571729,33.2955093 22.9701928,33.4055154 C23.0832127,33.5155214 23.2301385,33.5705244 23.4109703,33.5705244 Z M26.9912109,34 L27.4892578,32.5205078 L30.140625,32.5205078 L30.6044922,34 L32.2353516,34 L29.6865234,26.8027344 L27.9873047,26.8027344 L25.4189453,34 L26.9912109,34 Z M29.7207031,31.2802734 L27.8945312,31.2802734 L28.8222656,28.4482422 L29.7207031,31.2802734 Z M33.5576048,33.5705244 C33.9644764,33.5705244 34.1679122,33.3655817 34.1679122,32.9556962 C34.1679122,32.783906 34.1136627,32.639994 34.0051636,32.5239602 C33.8966645,32.4079265 33.7565198,32.3499096 33.5847296,32.3499096 C33.1597748,32.3499096 32.9472974,32.5563593 32.9472974,32.9692586 C32.9472974,33.1500904 33.0038074,33.2955093 33.1168272,33.4055154 C33.2298471,33.5155214 33.376773,33.5705244 33.5576048,33.5705244 Z M41.5714392,34 L41.5714392,32.7060547 L37.5870642,32.7060547 L37.5870642,30.8554688 L41.0831579,30.8554688 L41.0831579,29.6054688 L37.5870642,29.6054688 L37.5870642,28.0771484 L41.3956579,28.0771484 L41.3956579,26.8027344 L36.1173376,26.8027344 L36.1173376,34 L41.5714392,34 Z" id="U.A.E" fill="#000000" fill-rule="nonzero"></path>
                    <path d="M22.9584087,8.00180832 L23.1006631,8.14245529 C23.1922845,8.23354096 23.2774764,8.31926864 23.3562387,8.39963834 C23.4743822,8.52019289 23.5738397,8.65943339 23.6546112,8.81735986 C23.7353828,8.97528632 23.7884268,9.15551537 23.8137432,9.35804702 C23.8390597,9.56057866 23.8517179,9.74502712 23.8517179,9.91139241 C23.8517179,10.6974081 23.6720916,11.3484027 23.3128391,11.8643761 C22.8257987,12.5539482 22.3423749,12.8987342 21.8625678,12.8987342 C21.5009042,12.8987342 21.1446655,12.7209162 20.7938517,12.3652803 C20.443038,12.0096444 20.2049427,11.6485835 20.079566,11.2820976 L20.079566,11.2820976 L20.2748644,11.4014467 L20.4024513,11.4701627 C20.4841605,11.5135624 20.5591722,11.5521398 20.6274864,11.5858951 C20.7299578,11.636528 20.8294153,11.6775166 20.925859,11.7088608 C21.0223026,11.7402049 21.1217601,11.7625075 21.2242315,11.7757685 C21.3267028,11.7890295 21.4442435,11.7944545 21.5768535,11.7920434 C22.0590717,11.7679325 22.4743822,11.5376733 22.8227848,11.1012658 C23.1711875,10.6648583 23.3453888,10.3803496 23.3453888,10.2477396 C23.3405666,9.95599759 23.047619,9.55455093 22.4665461,9.04339964 L22.4665461,9.04339964 L22.9584087,8.00180832 Z M41.0687161,5.22061483 L41.2640145,5.58589512 L41.954792,6.32007233 L41.3146474,7.13743219 L41.1555154,7.04339964 C41.1555154,7.44605184 41.1084991,7.91018686 41.0144665,8.4358047 C40.9686558,8.68655817 40.86739,8.99397227 40.7106691,9.35804702 C40.8312236,9.82338758 40.8854732,10.230862 40.8734177,10.5804702 C40.854129,11.0506329 40.8034961,11.3110307 40.721519,11.3616637 C40.615431,11.4315853 40.2103677,11.5015069 39.5063291,11.5714286 C38.8874824,11.6333132 38.5461958,11.6617691 38.4824694,11.6567963 L38.4719711,11.6546112 L38.6130199,10.6094033 C38.7335744,10.5901145 38.8468957,10.5684147 38.9529837,10.5443038 C39.1916817,10.4743822 39.3604581,10.3960217 39.4593128,10.3092224 C39.835443,9.96443641 40.07173,9.67872212 40.1681736,9.45207957 C39.9728752,9.07594937 39.7438216,8.74683544 39.4810127,8.46473779 C39.2495479,8.21977095 39.0342857,8.01646775 38.835226,7.85482821 L38.6889693,7.74141049 L38.5189873,7.94755877 C38.4755877,7.94755877 38.3164557,7.8185654 38.0415913,7.56057866 C37.7329717,7.27365883 37.5762508,7.06751055 37.5714286,6.94213382 C37.5641953,6.83604581 37.6262809,6.6371308 37.7576854,6.34538879 C37.8890898,6.05364678 38.0018083,5.9005425 38.0958409,5.88607595 C38.1971067,5.87402049 38.4080772,6.03074141 38.7287523,6.3562387 C39.0108499,6.65280289 39.2483424,6.93610609 39.4412297,7.20614828 C39.5424955,7.34840265 39.7365883,7.66184448 40.0235081,8.14647378 C40.2766727,8.57323689 40.4153104,8.81072936 40.4394213,8.85895118 C40.4948764,8.71669681 40.5575648,8.35382761 40.6274864,7.77034358 C40.6467752,7.25340567 40.6328873,6.76038577 40.5858228,6.29128391 L40.5443038,5.94394213 L40.7106691,5.73779385 C40.8505124,5.56901748 40.9698614,5.39662447 41.0687161,5.22061483 Z M17.3417722,7.77034358 L17.4299553,7.83629184 C17.7979297,8.14813448 17.9819168,8.79884612 17.9819168,9.78842676 C17.9819168,10.3092224 17.9590115,10.5744424 17.9132007,10.5840868 C17.8481013,10.6347197 17.7094635,10.6811332 17.4972875,10.7233273 C17.2851115,10.7655214 17.0488246,10.8095238 16.7884268,10.8553345 C15.9083785,10.9831224 15.3496082,11.053044 15.1121157,11.0650995 C14.8746233,11.0771549 14.5871007,11.0831826 14.2495479,11.0831826 C12.8366486,11.0831826 12.1301989,10.5985533 12.1301989,9.62929476 C12.1301989,9.26280892 12.2350814,8.92163954 12.4448463,8.60578662 C12.5123568,8.45871007 12.6726944,8.2610006 12.925859,8.01265823 C12.7787824,8.41289934 12.7052441,8.68053044 12.7052441,8.81555154 C12.7052441,9.33393611 12.9764919,9.67872212 13.5189873,9.84990958 C13.6588306,9.88607595 13.7932489,9.91681736 13.9222423,9.94213382 C14.0512357,9.96745027 14.2640145,9.98251959 14.5605787,9.98734177 C14.729355,9.98734177 14.9119952,9.98191682 15.1084991,9.97106691 C15.305003,9.960217 15.7492465,9.9270645 16.4412297,9.8716094 C17.0367691,9.82820976 17.3345389,9.76431585 17.3345389,9.67992767 C17.3345389,9.41470766 17.1006631,9.05666064 16.6329114,8.60578662 L16.6329114,8.60578662 L17.3417722,7.77034358 Z M43.8933092,5.28571429 L43.8933092,9.86437613 L43.1338156,11 L43.1338156,6.30922242 L43.8933092,5.28571429 Z M19.9240506,5.28571429 L19.9240506,9.86437613 L19.164557,11 L19.164557,6.30922242 L19.9240506,5.28571429 Z M25.4864376,5.28571429 L25.4864376,9.22423146 L25.4914566,9.29427612 C25.5115326,9.42358933 25.5918367,9.48824593 25.7323689,9.48824593 L25.7323689,9.48824593 L26.6112116,9.48824593 L26.6111989,9.48961483 L33.5,9.49 L33.4991989,9.49061483 L33.594254,9.49121674 C34.4301522,9.48561956 34.8637734,9.44364075 34.8951175,9.36528029 C34.9770946,9.22302592 35.0843882,9.02772755 35.2169982,8.77938517 C35.4074744,8.37432188 35.6130199,8.06088005 35.8336347,7.83905967 C36.0542495,7.6172393 36.2899337,7.50632911 36.5406872,7.50632911 C36.7022303,7.50632911 36.8384569,7.57986739 36.9493671,7.72694394 C37.0602773,7.87402049 37.1820374,8.1814346 37.3146474,8.64918626 C37.4472574,9.11693791 37.5111513,9.45810729 37.5063291,9.67269439 C37.5063291,10.323689 37.1241712,10.6491863 36.3598553,10.6491863 C36.0415913,10.6491863 35.7486438,10.6027728 35.4810127,10.5099458 C35.2133816,10.4171187 34.9674503,10.283906 34.7432188,10.1103074 C34.6424888,10.4232134 34.4198349,10.5970501 34.0752573,10.6318175 L33.9403255,10.6383363 L33.4991989,10.6376148 L33.5,10.64 L26.5,10.64 L26.4991989,10.6376148 L25.4177215,10.6383363 L25.2931485,10.633916 C25.0969125,10.6191816 24.957605,10.567611 24.875226,10.4792043 C24.7763713,10.3731163 24.7269439,10.2151899 24.7269439,10.005425 L24.7269439,10.005425 L24.7269439,5.96564195 L25.4864376,5.28571429 Z M40.403255,9.83905967 C40.3719108,9.83905967 40.3230862,9.88004822 40.2567812,9.96202532 C40.1904762,10.0440024 40.1476793,10.0934298 40.1283906,10.1103074 C40.0440024,10.1946956 39.9077088,10.3226174 39.7195097,10.4940727 L39.6003617,10.60217 L40.4575045,10.4792043 L40.4972875,10.3200723 L40.5033906,10.2697785 C40.5065552,10.2125904 40.5009042,10.1347197 40.4864376,10.0361664 C40.4671489,9.9047619 40.4394213,9.83905967 40.403255,9.83905967 Z M36.0524412,8.55515371 C35.9969861,8.55515371 35.9156118,8.58167571 35.8083183,8.63471971 C35.7010247,8.68776371 35.5919228,8.77335744 35.4810127,8.8915009 C35.3701025,9.00964436 35.3146474,9.10126582 35.3146474,9.16636528 C35.3146474,9.19770946 35.3363472,9.23387583 35.3797468,9.27486438 C35.4231465,9.31585292 35.5340567,9.36889693 35.7124774,9.43399638 C35.8908981,9.49909584 36.0771549,9.54189271 36.2712477,9.56238698 C36.4653406,9.58288125 36.5840868,9.59312839 36.6274864,9.59312839 C36.7022303,9.59312839 36.7396022,9.56057866 36.7396022,9.4954792 C36.7396022,9.33875829 36.6799277,9.14285714 36.5605787,8.90777577 C36.4412297,8.67269439 36.2718505,8.55515371 36.0524412,8.55515371 Z M15.522604,6.57685353 L16.2206148,7.16998192 L15.7106691,7.77034358 L15.0415913,7.21699819 L14.5822785,7.77034358 L13.8951175,7.1880651 L14.4014467,6.5840868 L15.0632911,7.14104882 L15.522604,6.57685353 Z" id="الامارات" fill="#000000" fill-rule="nonzero"></path>
                </g>
            </g>
        </g>
    </g>
</svg>