<?xml version="1.0" encoding="UTF-8"?>
<svg width="111px" height="25px" viewBox="0 0 111 25" version="1.1" xmlns="http://www.w3.org/2000/svg" xmlns:xlink="http://www.w3.org/1999/xlink">
    <title>CC-top@0.0x</title>
    <g id="All-Plates" stroke="none" stroke-width="1" fill="none" fill-rule="evenodd">
        <g id="Plates" transform="translate(-268.000000, -63.000000)">
            <g id="C.C.---Short-Number-Plate" transform="translate(266.000000, 61.000000)">
                <g id="CC-top" transform="translate(2.000000, 2.000000)">
                    <path d="M46.5,-44.5 L66.5,-44.5 L66.5,-44.5 C61.1666667,-44.1333333 58.5,-40.6583333 58.5,-34.075 C58.5,-24.2 58.5,46.2 58.5,56.075 C58.5,62.6583333 61.1666667,66.1333333 66.5,66.5 L46.5,66.5 C45.3954305,66.5 44.5,65.6045695 44.5,64.5 L44.5,-42.5 C44.5,-43.6045695 45.3954305,-44.5 46.5,-44.5 Z" id="Rectangle" fill="#FFB800" transform="translate(55.500000, 11.000000) rotate(-270.000000) translate(-55.500000, -11.000000) "></path>
                    <path d="M43.5698534,9.94575045 C43.6807635,9.94575045 43.7868515,9.81796263 43.8881174,9.56238698 C43.9893832,9.30681133 44.0580993,9.0952381 44.0942657,8.92766727 C44.130432,8.76009644 44.1485297,8.63893912 44.1485297,8.5641953 C44.1509263,7.72272453 43.8531566,6.97106691 43.255206,6.30922242 C42.6572554,5.64737794 42.2051758,5.3164557 41.8989673,5.3164557 C41.8242235,5.3164557 41.7072855,5.45991561 41.5481535,5.74683544 L41.5481535,5.74683544 L41.2877557,6.16636528 L41.6819691,6.59674503 C41.3926382,6.74623267 41.1370625,6.95599759 40.9152421,7.22603978 C40.6934218,7.49608198 40.5608118,7.84327908 40.5174121,8.2676311 L40.5174121,8.2676311 L40.5065622,8.49186257 L39.1611734,8.49186257 L39.1611734,9.63833635 L40.1593651,9.63833635 C40.6994495,9.63833635 41.2479727,9.51657625 41.8049347,9.27305606 L41.8049347,9.27305606 L42.687394,9.61301989 C43.2250673,9.83484027 43.5192204,9.94575045 43.5698534,9.94575045 Z M43.5843199,8.94394213 C43.3239221,8.83062086 43.0357967,8.73116335 42.7199438,8.64556962 C42.4040908,8.55997589 42.2461644,8.50150693 42.2461644,8.47016275 C42.4848624,8.12778782 42.6042114,7.80349608 42.6042114,7.49728752 C42.6042114,7.45147679 42.6054169,7.37311634 42.607828,7.26220615 C42.6084308,7.2344786 42.6088829,7.20931284 42.6091843,7.18670886 L42.6091843,7.0818264 L42.6091843,7.0818264 L42.607828,7.05244123 L42.6367611,7.03797468 C42.7524935,7.03797468 42.9526141,7.2212176 43.2371228,7.58770344 C43.5240426,8.1350211 43.6470083,8.54611212 43.6060197,8.82097649 C43.6060197,8.8716094 43.5987864,8.91259795 43.5843199,8.94394213 Z M42.0472494,8.35443038 C41.9387503,8.39783002 41.719341,8.39783002 41.3890215,8.35443038 C41.0587021,8.31103074 40.8935423,8.24713683 40.8935423,8.16274864 C40.8935423,7.92887281 41.0171107,7.68957203 41.2642476,7.44484629 C41.5113844,7.20012055 41.7579185,7.08499096 42.0038497,7.0994575 C42.0665381,7.0994575 42.1207877,7.13984328 42.1665984,7.22061483 C42.2124091,7.30138638 42.2353145,7.49367089 42.2353145,7.79746835 C42.2353145,7.96142254 42.1726261,8.14707655 42.0472494,8.35443038 Z M39.3781716,9.63833635 L39.3781716,8.49186257 L39.096074,8.49186257 C39.096074,8.27727547 39.0303717,7.9403255 38.8989673,7.48101266 C38.7675628,7.02169982 38.5921559,6.66907776 38.3727467,6.42314647 L38.3727467,6.42314647 L37.7289854,7.35262206 C37.8398956,7.44424352 37.9640667,7.61844485 38.1014989,7.87522604 C38.2389311,8.13200723 38.3076472,8.29294756 38.3076472,8.35804702 C38.3076472,8.44725738 38.2811252,8.49186257 38.2280812,8.49186257 L38.2280812,8.49186257 L35.8555676,8.49186257 L35.8555676,9.63833635 L39.3781716,9.63833635 Z M38.2714808,11.5551537 L38.7814266,10.954792 L38.0834157,10.3616637 L37.6241029,10.925859 L36.9622584,10.3688969 L36.4559293,10.9728752 L37.1430902,11.5551537 L37.6024031,11.0018083 L38.2714808,11.5551537 Z M33.8881174,6.52147378 L33.9134338,6.52079566 C33.9062006,6.52079566 34.0002331,6.44605184 34.1955315,6.2965642 C34.4149408,6.12778782 34.6186779,5.99879445 34.806743,5.90958409 C34.9321198,5.85412899 35.1069239,5.7986739 35.3311553,5.74321881 L35.3311553,5.74321881 L35.4251879,5.22242315 L34.8790758,5.37432188 C34.804332,5.39361061 34.7235604,5.40325497 34.6367611,5.40325497 C34.3474302,5.40325497 34.1714206,5.3429777 34.1087322,5.22242315 C34.10391,5.21036769 34.1014989,5.1946956 34.1014989,5.17540687 C34.1014989,5.10789632 34.1388708,5.02411091 34.2136147,4.92405063 C34.2883585,4.82399036 34.3522524,4.77034358 34.4052964,4.76311031 C34.4583404,4.75587703 34.5162066,4.7522604 34.5788949,4.7522604 C34.8248262,4.7522604 34.9719028,4.77757685 35.0201246,4.82820976 L35.0201246,4.82820976 L35.2081897,4.32188065 C35.1961342,4.32188065 35.1250071,4.30018083 34.9948081,4.25678119 C34.9007756,4.22543701 34.8187985,4.20976492 34.7488769,4.20976492 C34.5174121,4.20976492 34.2853446,4.37432188 34.0526743,4.7034358 C33.820004,5.03254973 33.7169299,5.33212779 33.7434519,5.60216998 C33.7482741,5.6503918 33.8169902,5.7034358 33.9496002,5.76130199 C34.0629215,5.8119349 34.1352542,5.83725136 34.1665984,5.83725136 C34.1473097,5.85412899 34.0942657,5.93851718 34.0074664,6.09041591 C33.9062006,6.27124774 33.8555676,6.39662447 33.8555676,6.46654611 C33.8555676,6.50994575 33.8748564,6.52802893 33.9134338,6.52079566 L33.8881174,6.52147378 Z M36.0725658,9.63833635 L36.0725658,8.49186257 L35.7904682,8.49186257 C35.7904682,8.27727547 35.724766,7.9403255 35.5933615,7.48101266 C35.461957,7.02169982 35.2865502,6.66907776 35.0671409,6.42314647 L35.0671409,6.42314647 L34.4233796,7.35262206 C34.5342898,7.44424352 34.658461,7.61844485 34.7958931,7.87522604 C34.9333253,8.13200723 35.0020414,8.29294756 35.0020414,8.35804702 C35.0020414,8.44725738 34.9755194,8.49186257 34.9224754,8.49186257 L34.9224754,8.49186257 L32.5499619,8.49186257 L32.5499619,9.63833635 L36.0725658,9.63833635 Z M32.7705767,9.63833635 L32.76696,8.49186257 L32.1810649,8.49186257 C31.9857666,8.49427366 31.8857063,8.35081374 31.8808841,8.06148282 L31.8808841,8.06148282 L31.8808841,5.26220615 L31.2371228,5.89511754 L31.2841391,6.44122966 L30.9188588,6.52802893 C30.3233193,6.66787221 29.9496002,6.89572031 29.7977015,7.21157324 C29.6908098,7.46152301 29.6017333,7.67423481 29.5304722,7.84970866 L29.436942,8.08499096 C29.3567732,8.29234479 29.3166888,8.4159132 29.3166888,8.4556962 C29.3166888,8.58830621 29.4107213,8.69559976 29.5987864,8.77757685 C30.1774483,9.01386377 30.5403175,9.13200723 30.687394,9.13200723 L30.687394,9.13200723 L30.8284429,9.11392405 L31.4432711,8.29294756 C31.4963151,8.33875829 31.5228371,8.40506329 31.5228371,8.49186257 C31.5638256,8.93309222 31.6433916,9.25376733 31.7615351,9.45388788 C31.8483344,9.57685353 32.0195218,9.63833635 32.2750975,9.63833635 L32.2750975,9.63833635 L32.7705767,9.63833635 Z M31.1322403,8.06871609 C30.9706972,8.06871609 30.8133735,8.03375527 30.6602693,7.96383363 C30.507165,7.893912 30.2594254,7.76491863 29.9170505,7.57685353 C30.2184368,7.25617842 30.684983,7.00180832 31.3166888,6.81374322 C31.3432108,6.83303195 31.3817883,7.20072333 31.4324212,7.91681736 C31.4444766,8.01808318 31.3444163,8.06871609 31.1322403,8.06871609 Z M25.8209765,5.3562387 L26.2694394,4.82820976 L25.6546112,4.30379747 L25.2495479,4.80289331 L24.6672694,4.31103074 L24.2188065,4.84267631 L24.8264014,5.3562387 L25.2314647,4.86799277 L25.8209765,5.3562387 Z M25.5895118,9.63833635 C25.968053,9.63833635 26.3176612,9.61543098 26.6383363,9.56962025 C26.8746233,9.51657625 26.9939723,8.96323086 26.9963834,7.90958409 C26.9963834,7.69499699 26.9764919,7.45629898 26.9367089,7.19349005 C26.8969259,6.93068113 26.8336347,6.70886076 26.7468354,6.52802893 C26.4382158,5.95418927 26.1428571,5.66726944 25.8607595,5.66726944 C25.636528,5.66726944 25.3664858,5.89029536 25.0506329,6.3363472 C24.6745027,6.84990958 24.4864376,7.22483424 24.4864376,7.46112116 C24.4864376,7.70223026 24.6564195,7.89752863 24.9963834,8.04701627 L24.9963834,8.04701627 L25.954792,8.49186257 L23.7233273,8.49186257 L23.7233273,9.63833635 L23.7233273,9.63833635 L25.5895118,9.63833635 Z M26.4321881,7.77938517 L24.9963834,6.97287523 C25.0060277,6.93188668 25.0325497,6.87522604 25.0759494,6.80289331 C25.119349,6.73056058 25.1952984,6.66184448 25.3037975,6.59674503 C25.4122966,6.53164557 25.496082,6.48764316 25.5551537,6.46473779 C25.6142254,6.44183243 25.6594334,6.43037975 25.6907776,6.43037975 C25.8233876,6.43037975 25.9873418,6.59674503 26.1826401,6.92947559 C26.3562387,7.31283906 26.443038,7.58047016 26.443038,7.7323689 C26.443038,7.75406872 26.4394213,7.76974081 26.4321881,7.77938517 L26.4321881,7.77938517 Z M22.1464738,5.46835443 L22.4647378,4.70886076 L21.5931284,4.33273056 L21.2929476,5.08499096 L22.1464738,5.46835443 Z M23.9403255,9.63833635 L23.9403255,8.49186257 L23.6582278,8.49186257 C23.6582278,8.27727547 23.5925256,7.9403255 23.4611212,7.48101266 C23.3297167,7.02169982 23.1543098,6.66907776 22.9349005,6.42314647 L22.9349005,6.42314647 L22.2911392,7.35262206 C22.4020494,7.44424352 22.5262206,7.61844485 22.6636528,7.87522604 C22.801085,8.13200723 22.8698011,8.29294756 22.8698011,8.35804702 C22.8698011,8.44725738 22.8432791,8.49186257 22.7902351,8.49186257 L22.7902351,8.49186257 L20.4177215,8.49186257 L20.4177215,9.63833635 L23.9403255,9.63833635 Z M12.4611212,9.63833635 C12.7938517,9.63833635 13.0964436,9.54671489 13.3688969,9.36347197 C13.6775166,9.54671489 14.138035,9.63833635 14.7504521,9.63833635 L14.7504521,9.63833635 L19.3544304,9.63833635 C19.6220615,9.63833635 19.7787824,9.59855335 19.8245931,9.51898734 C19.8390597,9.49728752 19.8535262,9.47438216 19.8679928,9.45027125 L19.8679928,9.45027125 L20.0488246,9.63833635 L20.6347197,9.63833635 L20.6347197,8.49186257 L20.3417722,8.48824593 C20.3851718,8.33152502 20.4080772,8.18444846 20.4104882,8.04701627 C20.4104882,7.62507535 20.0247137,7.17179024 19.2531646,6.68716094 C18.9493671,6.54731766 18.668475,6.47739602 18.4104882,6.47739602 C18.1404461,6.47739602 17.6027728,6.82820976 16.7974684,7.52983725 C16.6262809,7.66968053 16.3803496,7.85895118 16.0596745,8.09764919 C15.7052441,8.37251356 15.384569,8.50994575 15.0976492,8.50994575 C14.5045208,8.50994575 14.1597348,8.49427366 14.0632911,8.46292948 C13.9668475,8.43158529 13.915009,8.40024111 13.9077758,8.36889693 C13.9077758,8.34719711 13.9186257,8.30560579 13.9403255,8.24412297 C13.9620253,8.18264014 13.9849307,8.10247137 14.0090416,8.00361664 C14.0331525,7.9047619 14.0554551,7.79324895 14.0759494,7.66907776 C14.0964436,7.54490657 14.1066908,7.44062688 14.1066908,7.3562387 C14.1091019,7.25979506 14.1066908,7.17661242 14.0994575,7.10669078 C14.0922242,7.03676914 14.0837854,6.9801085 14.074141,6.93670886 L14.074141,6.93670886 L13.3942134,7.62748644 C13.4159132,7.7191079 13.4267631,7.86015672 13.4267631,8.05063291 C13.4267631,8.23387583 13.4074744,8.34719711 13.3688969,8.39059675 C13.3158529,8.47739602 12.9361061,8.5111513 12.2296564,8.49186257 L12.2296564,8.49186257 L12.2296564,9.63833635 L12.4611212,9.63833635 Z M18.5153707,8.62567812 C17.6931887,8.62567812 17.1440627,8.61904762 16.8679928,8.60578662 C16.5919228,8.59252562 16.4382158,8.57986739 16.4068716,8.56781193 C16.4068716,8.46172393 16.5744424,8.2808921 16.9095841,8.02531646 C17.3532248,7.72393008 17.8704039,7.57323689 18.4611212,7.57323689 C18.6130199,7.57323689 18.8698011,7.66726944 19.2314647,7.85533454 C19.6124171,8.05063291 19.8028933,8.21820374 19.8028933,8.35804702 C19.8028933,8.53646775 19.3737191,8.62567812 18.5153707,8.62567812 Z M12.4466546,9.63833635 L12.4466546,8.49186257 L11.8716094,8.49186257 L11.8716094,4.28571429 L11.1121157,4.9403255 L11.1121157,8.49186257 L9.57504521,8.49186257 L9.57504521,9.63833635 L12.4466546,9.63833635 Z M9.84990958,9.63833635 L9.84990958,8.49186257 L9.56781193,8.49186257 C9.56781193,8.27727547 9.5021097,7.9403255 9.37070524,7.48101266 C9.23930078,7.02169982 9.06389391,6.66907776 8.84448463,6.42314647 L8.84448463,6.42314647 L8.20072333,7.35262206 C8.31163351,7.44424352 8.4358047,7.61844485 8.57323689,7.87522604 C8.71066908,8.13200723 8.77938517,8.29294756 8.77938517,8.35804702 C8.77938517,8.44725738 8.75286317,8.49186257 8.69981917,8.49186257 L8.69981917,8.49186257 L6.32730561,8.49186257 L6.32730561,9.63833635 L9.84990958,9.63833635 Z M8.74321881,11.5551537 L9.25316456,10.954792 L8.55515371,10.3616637 L8.09584087,10.925859 L7.43399638,10.3688969 L6.92766727,10.9728752 L7.61482821,11.5551537 L8.07414105,11.0018083 L8.74321881,11.5551537 Z M4.75045208,5.33453888 L5.26039783,4.73417722 L4.56238698,4.14104882 L4.10307414,4.70524412 L3.44122966,4.1482821 L2.93490054,4.7522604 L3.62206148,5.33453888 L4.08137432,4.78119349 L4.75045208,5.33453888 Z M6.54792043,9.63833635 L6.5443038,8.49186257 L5.95840868,8.49186257 C5.76311031,8.49427366 5.66305003,8.35081374 5.65822785,8.06148282 L5.65822785,8.06148282 L5.65822785,5.26220615 L5.01446655,5.89511754 L5.06148282,6.44122966 L4.69620253,6.52802893 C4.10066305,6.66787221 3.72694394,6.89572031 3.57504521,7.21157324 C3.2543701,7.96142254 3.09403255,8.3761302 3.09403255,8.4556962 C3.09403255,8.58830621 3.1880651,8.69559976 3.3761302,8.77757685 C3.95479204,9.01386377 4.31766124,9.13200723 4.46473779,9.13200723 L4.46473779,9.13200723 L4.60578662,9.11392405 L5.22061483,8.29294756 C5.27365883,8.33875829 5.30018083,8.40506329 5.30018083,8.49186257 C5.34116938,8.93309222 5.42073538,9.25376733 5.53887884,9.45388788 C5.62567812,9.57685353 5.79686558,9.63833635 6.05244123,9.63833635 L6.05244123,9.63833635 L6.54792043,9.63833635 Z M4.90958409,8.06871609 C4.74804099,8.06871609 4.5907173,8.03375527 4.43761302,7.96383363 C4.28450874,7.893912 4.03676914,7.76491863 3.69439421,7.57685353 C3.99578059,7.25617842 4.4623267,7.00180832 5.09403255,6.81374322 C5.12055455,6.83303195 5.15913201,7.20072333 5.20976492,7.91681736 C5.22182037,8.01808318 5.1217601,8.06871609 4.90958409,8.06871609 Z" id="هيئه-قنصلية" fill="#000000" fill-rule="nonzero"></path>
                    <path d="M18.7693962,24.1801758 C19.5223258,24.1801758 20.1397575,23.9589844 20.6216911,23.5166016 C21.1036247,23.0742187 21.4031852,22.5 21.5203727,21.7939453 L21.5203727,21.7939453 L20.1800407,21.7939453 C20.0892204,22.1279297 19.9749626,22.378418 19.8372672,22.5454102 C19.5882438,22.855957 19.2264274,23.0112305 18.751818,23.0112305 C18.2889274,23.0112305 17.9073356,22.8303223 17.6070426,22.4685059 C17.3067497,22.1066895 17.1566032,21.5625 17.1566032,20.8359375 C17.1566032,20.109375 17.298693,19.5476074 17.5828727,19.1506348 C17.8670524,18.7536621 18.255236,18.5551758 18.7474235,18.5551758 C19.2308219,18.5551758 19.595568,18.6958008 19.8416618,18.9770508 C19.9793571,19.1352539 20.0921501,19.3696289 20.1800407,19.6801758 L20.1800407,19.6801758 L21.5335563,19.6801758 C21.5130485,19.2758789 21.3636344,18.8730469 21.0853141,18.4716797 C20.5814079,17.7568359 19.7845329,17.3994141 18.6946891,17.3994141 C17.880236,17.3994141 17.2093376,17.6660156 16.6819938,18.1992187 C16.0755485,18.8115234 15.7723258,19.6831055 15.7723258,20.8139648 C15.7723258,21.8598633 16.0389274,22.6831055 16.5721305,23.2836914 C17.1053337,23.8813477 17.8377555,24.1801758 18.7693962,24.1801758 Z M22.9213382,23.613472 C23.2875226,23.613472 23.4706148,23.4290235 23.4706148,23.0601266 C23.4706148,22.9055154 23.4217902,22.7759946 23.324141,22.6715642 C23.2264919,22.5671338 23.1003617,22.5149186 22.9457505,22.5149186 C22.5632911,22.5149186 22.3720615,22.7007233 22.3720615,23.0723327 C22.3720615,23.2350814 22.4229204,23.3659584 22.5246383,23.4649638 C22.6263562,23.5639693 22.7585895,23.613472 22.9213382,23.613472 Z M27.9013672,24.1801758 C28.6542969,24.1801758 29.2717285,23.9589844 29.7536621,23.5166016 C30.2355957,23.0742187 30.5351562,22.5 30.6523437,21.7939453 L30.6523437,21.7939453 L29.3120117,21.7939453 C29.2211914,22.1279297 29.1069336,22.378418 28.9692383,22.5454102 C28.7202148,22.855957 28.3583984,23.0112305 27.8837891,23.0112305 C27.4208984,23.0112305 27.0393066,22.8303223 26.7390137,22.4685059 C26.4387207,22.1066895 26.2885742,21.5625 26.2885742,20.8359375 C26.2885742,20.109375 26.4306641,19.5476074 26.7148437,19.1506348 C26.9990234,18.7536621 27.387207,18.5551758 27.8793945,18.5551758 C28.362793,18.5551758 28.7275391,18.6958008 28.9736328,18.9770508 C29.1113281,19.1352539 29.2241211,19.3696289 29.3120117,19.6801758 L29.3120117,19.6801758 L30.6655273,19.6801758 C30.6450195,19.2758789 30.4956055,18.8730469 30.2172852,18.4716797 C29.7133789,17.7568359 28.9165039,17.3994141 27.8266602,17.3994141 C27.012207,17.3994141 26.3413086,17.6660156 25.8139648,18.1992187 C25.2075195,18.8115234 24.9042969,19.6831055 24.9042969,20.8139648 C24.9042969,21.8598633 25.1708984,22.6831055 25.7041016,23.2836914 C26.2373047,23.8813477 26.9697266,24.1801758 27.9013672,24.1801758 Z M32.0533092,23.613472 C32.4194936,23.613472 32.6025859,23.4290235 32.6025859,23.0601266 C32.6025859,22.9055154 32.5537613,22.7759946 32.4561121,22.6715642 C32.3584629,22.5671338 32.2323327,22.5149186 32.0777215,22.5149186 C31.6952622,22.5149186 31.5040325,22.7007233 31.5040325,23.0723327 C31.5040325,23.2350814 31.5548915,23.3659584 31.6566094,23.4649638 C31.7583273,23.5639693 31.8905605,23.613472 32.0533092,23.613472 Z" id="C.C." fill="#000000" fill-rule="nonzero"></path>
                    <path d="M78.658068,24.1669922 C79.7801383,24.1669922 80.5403922,23.8154297 80.9388297,23.1123047 C81.1526969,22.7285156 81.2596305,22.1923828 81.2596305,21.5039062 L81.2596305,21.5039062 L81.2596305,17.5224609 L79.8841422,17.5224609 L79.8841422,21.5039062 C79.8841422,21.9492187 79.8314079,22.2744141 79.7259391,22.4794922 C79.5618766,22.8427734 79.2059196,23.0244141 78.658068,23.0244141 C78.1072868,23.0244141 77.7498649,22.8427734 77.5858024,22.4794922 C77.4803337,22.2744141 77.4275993,21.9492187 77.4275993,21.5039062 L77.4275993,21.5039062 L77.4275993,17.5224609 L76.052111,17.5224609 L76.052111,21.5039062 C76.052111,22.1923828 76.1590446,22.7285156 76.3729118,23.1123047 C76.774279,23.8154297 77.5359977,24.1669922 78.658068,24.1669922 Z M82.9198733,23.613472 C83.2860578,23.613472 83.46915,23.4290235 83.46915,23.0601266 C83.46915,22.9055154 83.4203254,22.7759946 83.3226762,22.6715642 C83.225027,22.5671338 83.0988968,22.5149186 82.9442856,22.5149186 C82.5618263,22.5149186 82.3705966,22.7007233 82.3705966,23.0723327 C82.3705966,23.2350814 82.4214556,23.3659584 82.5231735,23.4649638 C82.6248914,23.5639693 82.7571247,23.613472 82.9198733,23.613472 Z M86.1420898,24 L86.590332,22.668457 L88.9765625,22.668457 L89.394043,24 L90.8618164,24 L88.5678711,17.5224609 L87.0385742,17.5224609 L84.7270508,24 L86.1420898,24 Z M88.5986328,21.5522461 L86.9550781,21.5522461 L87.7900391,19.003418 L88.5986328,21.5522461 Z M92.0518443,23.613472 C92.4180288,23.613472 92.601121,23.4290235 92.601121,23.0601266 C92.601121,22.9055154 92.5522964,22.7759946 92.4546472,22.6715642 C92.3569981,22.5671338 92.2308679,22.5149186 92.0762566,22.5149186 C91.6937973,22.5149186 91.5025677,22.7007233 91.5025677,23.0723327 C91.5025677,23.2350814 91.5534266,23.3659584 91.6551445,23.4649638 C91.7568624,23.5639693 91.8890957,23.613472 92.0518443,23.613472 Z M99.2642953,24 L99.2642953,22.8354492 L95.6783578,22.8354492 L95.6783578,21.1699219 L98.8248421,21.1699219 L98.8248421,20.0449219 L95.6783578,20.0449219 L95.6783578,18.6694336 L99.1060921,18.6694336 L99.1060921,17.5224609 L94.3556038,17.5224609 L94.3556038,24 L99.2642953,24 Z" id="U.A.E" fill="#000000" fill-rule="nonzero"></path>
                    <path d="M77.8282098,6.78119349 L77.9704641,6.92184047 C78.0620856,7.01292613 78.1472775,7.09865381 78.2260398,7.17902351 C78.3441832,7.29957806 78.4436407,7.43881857 78.5244123,7.59674503 C78.6051838,7.75467149 78.6582278,7.93490054 78.6835443,8.13743219 C78.7088608,8.33996383 78.721519,8.5244123 78.721519,8.69077758 C78.721519,9.47679325 78.5418927,10.1277878 78.1826401,10.6437613 C77.6955998,11.3333333 77.212176,11.6781193 76.7323689,11.6781193 C76.3707052,11.6781193 76.0144665,11.5003014 75.6636528,11.1446655 C75.3128391,10.7890295 75.0747438,10.4279687 74.9493671,10.0614828 L74.9493671,10.0614828 L75.1446655,10.1808318 L75.2722524,10.2495479 C75.3539616,10.2929476 75.4289733,10.331525 75.4972875,10.3652803 C75.5997589,10.4159132 75.6992164,10.4569017 75.79566,10.4882459 C75.8921037,10.5195901 75.9915612,10.5418927 76.0940325,10.5551537 C76.1965039,10.5684147 76.3140446,10.5738397 76.4466546,10.5714286 C76.9288728,10.5473177 77.3441832,10.3170585 77.6925859,9.88065099 C78.0409885,9.44424352 78.2151899,9.15973478 78.2151899,9.02712477 C78.2103677,8.73538276 77.9174201,8.33393611 77.3363472,7.82278481 L77.3363472,7.82278481 L77.8282098,6.78119349 Z M104.938517,4 L105.133816,4.36528029 L105.824593,5.0994575 L105.184448,5.91681736 L105.025316,5.82278481 C105.025316,6.22543701 104.9783,6.68957203 104.884268,7.21518987 C104.838457,7.46594334 104.737191,7.77335744 104.58047,8.13743219 C104.701025,8.60277275 104.755274,9.01024714 104.743219,9.35985533 C104.72393,9.83001808 104.673297,10.0904159 104.59132,10.1410488 C104.485232,10.2109705 104.080169,10.2808921 103.37613,10.3508137 C102.757284,10.4126984 102.415997,10.4411543 102.35227,10.4361814 L102.341772,10.4339964 L102.482821,9.38878843 C102.603376,9.3694997 102.716697,9.34779988 102.822785,9.32368897 C103.061483,9.25376733 103.230259,9.17540687 103.329114,9.08860759 C103.705244,8.74382158 103.941531,8.45810729 104.037975,8.23146474 C103.842676,7.85533454 103.613623,7.52622061 103.350814,7.24412297 C103.119349,6.99915612 102.904087,6.79585292 102.705027,6.63421338 L102.55877,6.52079566 L102.388788,6.72694394 C102.345389,6.72694394 102.186257,6.59795057 101.911392,6.33996383 C101.602773,6.053044 101.446052,5.84689572 101.44123,5.72151899 C101.433996,5.61543098 101.496082,5.41651597 101.627486,5.12477396 C101.758891,4.83303195 101.871609,4.67992767 101.965642,4.66546112 C102.066908,4.65340567 102.277878,4.81012658 102.598553,5.13562387 C102.880651,5.43218807 103.118143,5.71549126 103.311031,5.98553345 C103.412297,6.12778782 103.606389,6.44122966 103.893309,6.92585895 C104.146474,7.35262206 104.285112,7.59011453 104.309222,7.63833635 C104.364678,7.49608198 104.427366,7.13321278 104.497288,6.54972875 C104.516576,6.03279084 104.502688,5.53977095 104.455624,5.07066908 L104.414105,4.72332731 L104.58047,4.51717902 C104.720313,4.34840265 104.839662,4.17600964 104.938517,4 Z M72.2115732,6.54972875 L72.2997564,6.61567701 C72.6677307,6.92751965 72.8517179,7.57823129 72.8517179,8.56781193 C72.8517179,9.08860759 72.8288125,9.35382761 72.7830018,9.36347197 C72.7179024,9.41410488 72.5792646,9.46051838 72.3670886,9.50271248 C72.1549126,9.54490657 71.9186257,9.58890898 71.6582278,9.63471971 C70.7781796,9.76250753 70.2194093,9.83242917 69.9819168,9.84448463 C69.7444244,9.85654008 69.4569017,9.86256781 69.119349,9.86256781 C67.7064497,9.86256781 67,9.37793852 67,8.40867993 C67,8.04219409 67.1048825,7.70102471 67.3146474,7.38517179 C67.3821579,7.23809524 67.5424955,7.04038577 67.79566,6.7920434 C67.6485835,7.19228451 67.5750452,7.45991561 67.5750452,7.59493671 C67.5750452,8.11332128 67.8462929,8.45810729 68.3887884,8.62929476 C68.5286317,8.66546112 68.66305,8.69620253 68.7920434,8.72151899 C68.9210368,8.74683544 69.1338156,8.76190476 69.4303797,8.76672694 C69.5991561,8.76672694 69.7817963,8.76130199 69.9783002,8.75045208 C70.1748041,8.73960217 70.6190476,8.70644967 71.3110307,8.65099458 C71.9065702,8.60759494 72.20434,8.54370102 72.20434,8.45931284 C72.20434,8.19409283 71.9704641,7.83604581 71.5027125,7.38517179 L71.5027125,7.38517179 L72.2115732,6.54972875 Z M107.76311,4.06509946 L107.76311,8.6437613 L107.003617,9.77938517 L107.003617,5.08860759 L107.76311,4.06509946 Z M74.7938517,4.06509946 L74.7938517,8.6437613 L74.034358,9.77938517 L74.034358,5.08860759 L74.7938517,4.06509946 Z M80.3562387,4.06509946 L80.3562387,8.00361664 L80.3612577,8.07366129 C80.3813337,8.2029745 80.4616378,8.2676311 80.60217,8.2676311 L80.60217,8.2676311 L81.4810127,8.2676311 L81.481,8.269 L97.3698011,8.26938517 L97.369,8.27 L97.4640551,8.27060191 C98.2999533,8.26500474 98.7335744,8.22302592 98.7649186,8.14466546 C98.8468957,8.00241109 98.9541893,7.80711272 99.0867993,7.55877034 C99.2772755,7.15370705 99.482821,6.84026522 99.7034358,6.61844485 C99.9240506,6.39662447 100.159735,6.28571429 100.410488,6.28571429 C100.572031,6.28571429 100.708258,6.35925256 100.819168,6.50632911 C100.930078,6.65340567 101.051838,6.96081977 101.184448,7.42857143 C101.317058,7.89632309 101.380952,8.23749247 101.37613,8.45207957 C101.37613,9.10307414 100.993972,9.42857143 100.229656,9.42857143 C99.9113924,9.42857143 99.6184448,9.38215793 99.3508137,9.28933092 C99.0831826,9.19650392 98.8372514,9.06329114 98.6130199,8.88969259 C98.5122899,9.20259862 98.289636,9.37643531 97.9450584,9.41120264 L97.8101266,9.41772152 L97.369,9.417 L97.3698011,9.41938517 L81.3698011,9.41938517 L81.369,9.417 L80.2875226,9.41772152 L80.1629496,9.41330119 C79.9667135,9.39856674 79.8274061,9.34699618 79.7450271,9.25858951 C79.6461724,9.15250151 79.596745,8.99457505 79.596745,8.78481013 L79.596745,8.78481013 L79.596745,4.74502712 L80.3562387,4.06509946 Z M104.273056,8.61844485 C104.241712,8.61844485 104.192887,8.65943339 104.126582,8.74141049 C104.060277,8.82338758 104.01748,8.87281495 103.998192,8.88969259 C103.913803,8.97408077 103.77751,9.10200255 103.589311,9.27345791 L103.470163,9.38155515 L104.327306,9.25858951 L104.367089,9.0994575 L104.373192,9.04916365 C104.376356,8.99197559 104.370705,8.91410488 104.356239,8.81555154 C104.33695,8.68414708 104.309222,8.61844485 104.273056,8.61844485 Z M99.9222423,7.33453888 C99.8667872,7.33453888 99.7854129,7.36106088 99.6781193,7.41410488 C99.5708258,7.46714888 99.4617239,7.55274262 99.3508137,7.67088608 C99.2399036,7.78902954 99.1844485,7.88065099 99.1844485,7.94575045 C99.1844485,7.97709464 99.2061483,8.013261 99.2495479,8.05424955 C99.2929476,8.0952381 99.4038577,8.1482821 99.5822785,8.21338156 C99.7606992,8.27848101 99.946956,8.32127788 100.141049,8.34177215 C100.335142,8.36226643 100.453888,8.37251356 100.497288,8.37251356 C100.572031,8.37251356 100.609403,8.33996383 100.609403,8.27486438 C100.609403,8.11814346 100.549729,7.92224231 100.43038,7.68716094 C100.311031,7.45207957 100.141652,7.33453888 99.9222423,7.33453888 Z M70.3924051,5.3562387 L71.0904159,5.94936709 L70.5804702,6.54972875 L69.9113924,5.99638336 L69.4520796,6.54972875 L68.7649186,5.96745027 L69.2712477,5.36347197 L69.9330922,5.920434 L70.3924051,5.3562387 Z" id="الامارات" fill="#000000" fill-rule="nonzero"></path>
                </g>
            </g>
        </g>
    </g>
</svg>