<?xml version="1.0" encoding="UTF-8"?>
<svg width="26px" height="11px" viewBox="0 0 26 11" version="1.1" xmlns="http://www.w3.org/2000/svg" xmlns:xlink="http://www.w3.org/1999/xlink">
    <title>export-ar@0.0x</title>
    <g id="All-Plates" stroke="none" stroke-width="1" fill="none" fill-rule="evenodd">
        <g id="Plates" transform="translate(-920.000000, -68.000000)" fill="#FFFFFF" fill-rule="nonzero">
            <g id="Export---Short-Number-Plate" transform="translate(836.000000, 61.000000)">
                <path d="M106.26,9.55 C106.486667,9.55 106.681667,9.47 106.845,9.31 C107.008333,9.15 107.09,8.96 107.09,8.74 C107.09,8.51333333 107.008333,8.32 106.845,8.16 C106.681667,8 106.486667,7.92 106.26,7.92 C106.046667,7.92 105.858333,8 105.695,8.16 C105.531667,8.32 105.45,8.51333333 105.45,8.74 C105.45,8.96 105.531667,9.15 105.695,9.31 C105.858333,9.47 106.046667,9.55 106.26,9.55 Z M108.46,9.55 C108.673333,9.55 108.861667,9.47 109.025,9.31 C109.188333,9.15 109.27,8.96 109.27,8.74 C109.27,8.51333333 109.19,8.32 109.03,8.16 C108.87,8 108.68,7.92 108.46,7.92 C108.233333,7.92 108.038333,8 107.875,8.16 C107.711667,8.32 107.63,8.51333333 107.63,8.74 C107.63,8.96 107.711667,9.15 107.875,9.31 C108.038333,9.47 108.233333,9.55 108.46,9.55 Z M105.35,15 C106.276667,15 106.98,14.82 107.46,14.46 C107.94,14.1 108.18,13.5666667 108.18,12.86 L108.18,12.86 L108.18,10.3 L106.48,10.5 L106.49,12.43 C106.49,12.7833333 106.41,13.0333333 106.25,13.18 C106.09,13.3266667 105.796667,13.4 105.37,13.4 C105.303333,13.4 105.27,13.4333333 105.27,13.5 L105.27,13.5 L105.25,14.89 C105.25,14.9233333 105.26,14.95 105.28,14.97 C105.3,14.99 105.323333,15 105.35,15 Z M102.13,15 C102.923333,15 103.533333,14.8133333 103.96,14.44 C104.253333,14.8133333 104.716667,15 105.35,15 C105.376667,15 105.4,14.99 105.42,14.97 C105.44,14.95 105.45,14.9233333 105.45,14.89 L105.45,14.89 L105.45,13.5 C105.45,13.4333333 105.416667,13.4 105.35,13.4 C105.09,13.4 104.9,13.3233333 104.78,13.17 C104.66,13.0166667 104.6,12.77 104.6,12.43 L104.6,12.43 L104.6,12.34 C104.6,11.5866667 104.421667,11 104.065,10.58 C103.708333,10.16 103.213333,9.95 102.58,9.95 C102.193333,9.95 101.773333,10.08 101.32,10.34 C100.866667,10.6 100.463333,10.9533333 100.11,11.4 L100.11,11.4 L100.11,10.4 L98.41,10.6 L98.42,13.4 L97.7,13.4 C97.6333333,13.4 97.6,13.4333333 97.6,13.5 L97.6,13.5 L97.58,14.89 C97.58,14.9233333 97.59,14.95 97.61,14.97 C97.63,14.99 97.6533333,15 97.68,15 L97.68,15 L102.13,15 Z M102.15,13.4 L100.11,13.4 L100.11,13.11 C100.376667,12.7166667 100.688333,12.3983333 101.045,12.155 C101.401667,11.9116667 101.736667,11.79 102.05,11.79 C102.33,11.79 102.541667,11.8666667 102.685,12.02 C102.828333,12.1733333 102.9,12.3966667 102.9,12.69 L102.9,12.69 L102.9,12.75 C102.9,12.9366667 102.831667,13.0916667 102.695,13.215 C102.558333,13.3383333 102.376667,13.4 102.15,13.4 L102.15,13.4 Z M94.28,15 C94.6533333,15 95.0166667,14.965 95.37,14.895 C95.7233333,14.825 96.0366667,14.7233333 96.31,14.59 C96.6766667,14.8633333 97.1333333,15 97.68,15 C97.7066667,15 97.73,14.99 97.75,14.97 C97.77,14.95 97.78,14.9233333 97.78,14.89 L97.78,14.89 L97.78,13.5 C97.78,13.4333333 97.7466667,13.4 97.68,13.4 C97.5333333,13.4 97.4183333,13.3766667 97.335,13.33 C97.2516667,13.2833333 97.1866667,13.205 97.14,13.095 C97.0933333,12.985 97.04,12.8166667 96.98,12.59 L96.98,12.59 L96.29,9.95 L94.54,9.95 L95.52,13.31 C95.1733333,13.37 94.7666667,13.4 94.3,13.4 L94.3,13.4 L92.71,13.4 L93.06,15 L94.28,15 Z M89.72,15 C91.36,15 92.18,14.2866667 92.18,12.86 L92.18,12.86 L92.18,10.3 L90.47,10.5 L90.48,12.43 C90.48,12.77 90.42,13.0166667 90.3,13.17 C90.18,13.3233333 89.9933333,13.4 89.74,13.4 L89.74,13.4 L88.68,13.4 C88.6133333,13.4 88.58,13.4333333 88.58,13.5 L88.58,13.5 L88.56,14.89 C88.56,14.9233333 88.57,14.95 88.59,14.97 C88.61,14.99 88.6333333,15 88.66,15 L88.66,15 L89.72,15 Z M89.4,17.48 C89.6266667,17.48 89.8216667,17.4 89.985,17.24 C90.1483333,17.08 90.23,16.89 90.23,16.67 C90.23,16.4433333 90.1483333,16.25 89.985,16.09 C89.8216667,15.93 89.6266667,15.85 89.4,15.85 C89.18,15.85 88.99,15.9316667 88.83,16.095 C88.67,16.2583333 88.59,16.45 88.59,16.67 C88.59,16.89 88.6716667,17.08 88.835,17.24 C88.9983333,17.4 89.1866667,17.48 89.4,17.48 Z M91.6,17.48 C91.8133333,17.48 92.0016667,17.4 92.165,17.24 C92.3283333,17.08 92.41,16.89 92.41,16.67 C92.41,16.45 92.33,16.2583333 92.17,16.095 C92.01,15.9316667 91.82,15.85 91.6,15.85 C91.3733333,15.85 91.1783333,15.93 91.015,16.09 C90.8516667,16.25 90.77,16.4433333 90.77,16.67 C90.77,16.89 90.8516667,17.08 91.015,17.24 C91.1783333,17.4 91.3733333,17.48 91.6,17.48 Z M84.93,17.15 C85.6233333,17.15 86.185,17.0783333 86.615,16.935 C87.045,16.7916667 87.3666667,16.5633333 87.58,16.25 C87.7933333,15.9366667 87.9133333,15.52 87.94,15 L87.94,15 L88.66,15 C88.7266667,15 88.76,14.97 88.76,14.91 L88.76,14.91 L88.76,13.49 C88.76,13.43 88.7266667,13.4 88.66,13.4 L88.66,13.4 L87.94,13.4 L87.94,10.4 L86.23,10.6 L86.24,14.6 C86.24,14.9733333 86.1216667,15.25 85.885,15.43 C85.6483333,15.61 85.33,15.7 84.93,15.7 L84.93,15.7 L84.93,17.15 Z" id="export-ar"></path>
            </g>
        </g>
    </g>
</svg>