<?xml version="1.0" encoding="UTF-8"?>
<svg width="19px" height="11px" viewBox="0 0 19 11" version="1.1" xmlns="http://www.w3.org/2000/svg" xmlns:xlink="http://www.w3.org/1999/xlink">
    <title>learning-l@0.0x</title>
    <g id="All-Plates" stroke="none" stroke-width="1" fill="none" fill-rule="evenodd">
        <g id="Plates" transform="translate(-1148.000000, -69.000000)" fill="#EE0000" fill-rule="nonzero">
            <g id="Learning-Vehicle---Short-Number-Plate" transform="translate(1058.000000, 61.000000)">
                <path d="M97.7405915,18.06 L97.7405915,16.031831 L93.1912958,16.031831 L93.1912958,8.06 L90.642,8.06 L90.642,18.06 L97.7405915,18.06 Z M101.994113,11.3839437 C102.313362,11.3839437 102.588009,11.2712676 102.818056,11.0459155 C103.048103,10.8205634 103.163127,10.5529577 103.163127,10.2430986 C103.163127,9.92384977 103.048103,9.6515493 102.818056,9.42619718 C102.588009,9.20084507 102.313362,9.08816901 101.994113,9.08816901 C101.684254,9.08816901 101.416648,9.20084507 101.191296,9.42619718 C100.965944,9.6515493 100.853268,9.92384977 100.853268,10.2430986 C100.853268,10.5529577 100.968291,10.8205634 101.198338,11.0459155 C101.428385,11.2712676 101.693643,11.3839437 101.994113,11.3839437 Z M105.092704,11.3839437 C105.393174,11.3839437 105.658432,11.2712676 105.888479,11.0459155 C106.118526,10.8205634 106.233549,10.5529577 106.233549,10.2430986 C106.233549,9.92384977 106.120873,9.6515493 105.895521,9.42619718 C105.670169,9.20084507 105.402563,9.08816901 105.092704,9.08816901 C104.773455,9.08816901 104.498808,9.20084507 104.268761,9.42619718 C104.038714,9.6515493 103.92369,9.92384977 103.92369,10.2430986 C103.92369,10.5529577 104.038714,10.8205634 104.268761,11.0459155 C104.498808,11.2712676 104.773455,11.3839437 105.092704,11.3839437 Z M105.48707,18.06 C107.768761,18.0412207 108.909606,17.0365258 108.909606,15.0459155 L108.909606,15.0459155 L108.909606,11.4402817 L106.515239,11.7219718 L106.515239,14.4402817 C106.524629,14.9191549 106.444817,15.2665728 106.275803,15.4825352 C106.106789,15.6984977 105.839183,15.8064789 105.472986,15.8064789 L105.472986,15.8064789 L102.670169,15.8064789 C102.003502,15.8064789 101.515239,15.6938028 101.20538,15.4684507 C100.895521,15.2430986 100.740592,14.8862911 100.740592,14.3980282 L100.740592,14.3980282 L100.740592,12.8346479 L98.557493,12.8487324 L98.557493,14.8487324 C98.557493,16.9895775 99.7312019,18.06 102.07862,18.06 L102.07862,18.06 L105.48707,18.06 Z" id="learning-l"></path>
            </g>
        </g>
    </g>
</svg>