<?xml version="1.0" encoding="UTF-8"?>
<svg width="31px" height="11px" viewBox="0 0 31 11" version="1.1" xmlns="http://www.w3.org/2000/svg" xmlns:xlink="http://www.w3.org/1999/xlink">
    <title>public-transport-ar@0.0x</title>
    <g id="All-Plates" stroke="none" stroke-width="1" fill="none" fill-rule="evenodd">
        <g id="Plates" transform="translate(-697.000000, -222.000000)" fill="#FFFFFF" fill-rule="nonzero">
            <g id="Public-Transport---Short-Number-Plate" transform="translate(619.000000, 215.000000)">
                <path d="M107.68,9.55 C107.913333,9.55 108.113333,9.465 108.28,9.295 C108.446667,9.125 108.53,8.92666667 108.53,8.7 C108.53,8.46666667 108.446667,8.265 108.28,8.095 C108.113333,7.925 107.913333,7.84 107.68,7.84 C107.446667,7.84 107.246667,7.925 107.08,8.095 C106.913333,8.265 106.83,8.46666667 106.83,8.7 C106.83,8.92666667 106.913333,9.125 107.08,9.295 C107.246667,9.465 107.446667,9.55 107.68,9.55 Z M106.04,15 C107.68,15 108.5,14.2866667 108.5,12.86 L108.5,12.86 L108.5,10.3 L106.8,10.5 L106.8,12.43 C106.806667,12.77 106.75,13.0166667 106.63,13.17 C106.51,13.3233333 106.32,13.4 106.06,13.4 C105.993333,13.4 105.96,13.4333333 105.96,13.5 L105.96,13.5 L105.94,14.89 C105.94,14.9233333 105.95,14.95 105.97,14.97 C105.99,14.99 106.013333,15 106.04,15 Z M102.02,9.1 C102.246667,9.1 102.441667,9.02 102.605,8.86 C102.768333,8.7 102.85,8.51 102.85,8.29 C102.85,8.06333333 102.768333,7.87 102.605,7.71 C102.441667,7.55 102.246667,7.47 102.02,7.47 C101.8,7.47 101.61,7.55 101.45,7.71 C101.29,7.87 101.21,8.06333333 101.21,8.29 C101.21,8.51 101.291667,8.7 101.455,8.86 C101.618333,9.02 101.806667,9.1 102.02,9.1 Z M104.22,9.1 C104.433333,9.1 104.621667,9.02 104.785,8.86 C104.948333,8.7 105.03,8.51 105.03,8.29 C105.03,8.06333333 104.95,7.87 104.79,7.71 C104.63,7.55 104.44,7.47 104.22,7.47 C103.993333,7.47 103.798333,7.55 103.635,7.71 C103.471667,7.87 103.39,8.06333333 103.39,8.29 C103.39,8.51 103.471667,8.7 103.635,8.86 C103.798333,9.02 103.993333,9.1 104.22,9.1 Z M106.04,15 C106.066667,15 106.09,14.99 106.11,14.97 C106.13,14.95 106.14,14.9233333 106.14,14.89 L106.14,14.89 L106.14,13.5 C106.14,13.4333333 106.106667,13.4 106.04,13.4 L106.04,13.4 L105.38,13.4 C105.44,13 105.47,12.67 105.47,12.41 C105.47,11.6366667 105.266667,11.0333333 104.86,10.6 C104.453333,10.1666667 103.883333,9.95 103.15,9.95 C102.73,9.95 102.35,10.0416667 102.01,10.225 C101.67,10.4083333 101.403333,10.66 101.21,10.98 C101.016667,11.3 100.92,11.6533333 100.92,12.04 C100.92,12.58 101.083333,13.0333333 101.41,13.4 L101.41,13.4 L100.52,13.4 C100.453333,13.4 100.42,13.4333333 100.42,13.5 L100.42,13.5 L100.42,14.89 C100.42,14.9233333 100.43,14.95 100.45,14.97 C100.47,14.99 100.493333,15 100.52,15 L100.52,15 L106.04,15 Z M103.65,13.4 L103.54,13.4 C103.186667,13.4 102.9,13.315 102.68,13.145 C102.46,12.975 102.35,12.7533333 102.35,12.48 C102.35,12.26 102.411667,12.0833333 102.535,11.95 C102.658333,11.8166667 102.823333,11.75 103.03,11.75 C103.25,11.75 103.428333,11.8233333 103.565,11.97 C103.701667,12.1166667 103.77,12.31 103.77,12.55 C103.77,12.73 103.73,13.0133333 103.65,13.4 L103.65,13.4 Z M96.92,17.15 C97.7533333,17.15 98.3983333,16.975 98.855,16.625 C99.3116667,16.275 99.6033333,15.7333333 99.73,15 L99.73,15 L100.51,15 C100.576667,15 100.61,14.97 100.61,14.91 L100.61,14.91 L100.61,13.49 C100.61,13.43 100.576667,13.4 100.51,13.4 L100.51,13.4 L99.8,13.4 L99.8,7.61 L98.1,7.8 L98.1,14.03 C98.1,14.5766667 98.0083333,14.9666667 97.825,15.2 C97.6416667,15.4333333 97.3366667,15.55 96.91,15.55 C96.4766667,15.55 96.1583333,15.4366667 95.955,15.21 C95.7516667,14.9833333 95.65,14.63 95.65,14.15 L95.65,14.15 L95.65,12.26 L94.1,12.26 L94.1,14.46 C94.1,15.38 94.3283333,16.0583333 94.785,16.495 C95.2416667,16.9316667 95.9533333,17.15 96.92,17.15 Z M86.87,15 C87.7566667,15 88.5816667,14.9733333 89.345,14.92 C90.1083333,14.8666667 90.7566667,14.79 91.29,14.69 L91.29,14.69 L91.55,13.08 C90.9366667,13.18 90.4266667,13.2533333 90.02,13.3 C89.6533333,13.3133333 89.3333333,13.2466667 89.06,13.1 C88.7866667,12.9533333 88.65,12.6966667 88.65,12.33 C88.65,12.11 88.73,11.935 88.89,11.805 C89.05,11.675 89.2733333,11.61 89.56,11.61 C89.7933333,11.61 90.1833333,11.67 90.73,11.79 L90.73,11.79 L90.73,10.19 C90.1766667,10.03 89.7133333,9.95 89.34,9.95 C88.8866667,9.95 88.4933333,10.0366667 88.16,10.21 C87.8266667,10.3833333 87.57,10.62 87.39,10.92 C87.21,11.22 87.12,11.5566667 87.12,11.93 C87.12,12.51 87.31,13 87.69,13.4 L87.69,13.4 L86.87,13.4 C86.8033333,13.4 86.77,13.4333333 86.77,13.5 L86.77,13.5 L86.77,14.89 C86.77,14.9233333 86.78,14.95 86.8,14.97 C86.82,14.99 86.8433333,15 86.87,15 Z M86.87,15 C86.8966667,15 86.92,14.99 86.94,14.97 C86.96,14.95 86.97,14.9233333 86.97,14.89 L86.97,14.89 L86.96,13.5 C86.96,13.4333333 86.9266667,13.4 86.86,13.4 C86.6,13.4 86.425,13.34 86.335,13.22 C86.245,13.1 86.2,12.8666667 86.2,12.52 L86.2,12.52 L86.2,7.7 L84.5,7.89 L84.51,12.96 C84.51,13.6733333 84.6966667,14.1916667 85.07,14.515 C85.4433333,14.8383333 86.0433333,15 86.87,15 Z M78.89,17.75 L80.59,17.56 L80.59,15.58 C80.59,15.3 80.65,15.1 80.77,14.98 C80.89,14.86 81.0733333,14.8 81.32,14.8 L81.32,14.8 L82.76,14.8 L83.7,12.76 C83.0733333,11.7066667 82.5466667,10.975 82.12,10.565 C81.6933333,10.155 81.2866667,9.95 80.9,9.95 C80.7266667,9.95 80.5383333,9.98166667 80.335,10.045 C80.1316667,10.1083333 79.8766667,10.21 79.57,10.35 L79.57,10.35 L79.57,11.95 C80.0233333,11.8366667 80.37,11.78 80.61,11.78 C80.8633333,11.78 81.115,11.8883333 81.365,12.105 C81.615,12.3216667 81.89,12.6866667 82.19,13.2 L82.19,13.2 L81.21,13.2 C80.4033333,13.2 79.815,13.3783333 79.445,13.735 C79.075,14.0916667 78.89,14.6966667 78.89,15.55 L78.89,15.55 L78.89,17.75 Z" id="public-transport-ar"></path>
            </g>
        </g>
    </g>
</svg>