<?xml version="1.0" encoding="UTF-8"?>
<svg width="16px" height="13px" viewBox="0 0 16 13" version="1.1" xmlns="http://www.w3.org/2000/svg" xmlns:xlink="http://www.w3.org/1999/xlink">
    <title>taxi-logo-short@0.0x</title>
    <g id="All-Plates" stroke="none" stroke-width="1" fill="none" fill-rule="evenodd">
        <g id="Plates" transform="translate(-1057.000000, -223.000000)" fill="#000000">
            <g id="Taxi---Short-Number-Plate" transform="translate(966.000000, 215.000000)">
                <g id="Taxi-Icon" transform="translate(90.999644, 8.000000)">
                    <path d="M13.9574468,12.9361702 L11.9148936,12.9361702 L11.9148936,10.893617 L4.08510638,10.893617 L4.08510638,12.9361702 L2.04255319,12.9361702 L2.04255319,10.893617 L0,10.893617 L0,7.79197381 C0,6.35361725 0.982497902,5.14978023 2.29936774,4.84211329 L3.06394757,1.0212766 L6.46808511,1.0212766 L6.46808511,8.5442764e-13 L9.53191489,8.5442764e-13 L9.53191489,1.0212766 L12.9361702,1.0212766 L13.7005342,4.84211329 C15.0175021,5.14978023 16,6.35361725 16,7.79197381 L16,7.79197381 L16,10.893617 L13.9574468,10.893617 L13.9574468,12.9361702 Z M13.0000433,6.8091389 C12.447879,6.8091389 12.0004421,7.26619836 12.0004421,7.83014063 C12.0004421,8.39392583 12.447879,8.85106383 13.0000433,8.85106383 C13.5522075,8.85106383 13.9996444,8.39392583 13.9996444,7.83014063 C13.9996444,7.26619836 13.5522075,6.8091389 13.0000433,6.8091389 Z M2.99980296,6.8091389 C2.44779247,6.8091389 2.00020184,7.26619836 2.00020184,7.83014063 C2.00020184,8.39392583 2.44779247,8.85106383 2.99980296,8.85106383 C3.55196724,8.85106383 3.99948098,8.39392583 3.99948098,7.83014063 C3.99948098,7.26619836 3.55196724,6.8091389 2.99980296,6.8091389 Z M12.118,2.042 L3.881,2.042 L3.336,4.765 L12.663,4.765 L12.118,2.042 Z"></path>
                </g>
            </g>
        </g>
    </g>
</svg>