<?xml version="1.0" encoding="UTF-8"?>
<svg width="33px" height="11px" viewBox="0 0 33 11" version="1.1" xmlns="http://www.w3.org/2000/svg" xmlns:xlink="http://www.w3.org/1999/xlink">
    <title>trailer-ar@0.0x</title>
    <g id="All-Plates" stroke="none" stroke-width="1" fill="none" fill-rule="evenodd">
        <g id="Plates" transform="translate(-1304.000000, -223.000000)" fill="#FFFFFF" fill-rule="nonzero">
            <g id="Trailer---Short-Number-Plate" transform="translate(1228.000000, 215.000000)">
                <path d="M107.26,16 L108.49,14.74 C108.563333,14.2466667 108.6,13.78 108.6,13.34 C108.6,12.86 108.505,12.44 108.315,12.08 C108.125,11.72 107.858333,11.44 107.515,11.24 C107.171667,11.04 106.78,10.94 106.34,10.94 C105.78,10.94 105.31,11.13 104.93,11.51 C104.55,11.89 104.276667,12.4466667 104.11,13.18 L104.11,13.18 L104,13.63 C103.933333,13.9366667 103.848333,14.1416667 103.745,14.245 C103.641667,14.3483333 103.516667,14.4 103.37,14.4 C103.303333,14.4 103.27,14.4333333 103.27,14.5 L103.27,14.5 L103.25,15.89 C103.25,15.9233333 103.26,15.95 103.28,15.97 C103.3,15.99 103.323333,16 103.35,16 C103.703333,16 104.001667,15.9566667 104.245,15.87 C104.488333,15.7833333 104.693333,15.64 104.86,15.44 L104.86,15.44 L107.26,16 Z M106.93,14.26 L105.42,14.05 L105.54,13.41 C105.58,13.1833333 105.663333,13.0083333 105.79,12.885 C105.916667,12.7616667 106.073333,12.7 106.26,12.7 C106.54,12.7 106.723333,12.81 106.81,13.03 C106.896667,13.25 106.94,13.5366667 106.94,13.89 C106.94,14.0566667 106.936667,14.18 106.93,14.26 L106.93,14.26 Z M99.26,10.1 C99.4866667,10.1 99.6816667,10.02 99.845,9.86 C100.008333,9.7 100.09,9.51 100.09,9.29 C100.09,9.06333333 100.008333,8.87 99.845,8.71 C99.6816667,8.55 99.4866667,8.47 99.26,8.47 C99.04,8.47 98.85,8.55 98.69,8.71 C98.53,8.87 98.45,9.06333333 98.45,9.29 C98.45,9.51 98.5316667,9.7 98.695,9.86 C98.8583333,10.02 99.0466667,10.1 99.26,10.1 Z M101.46,10.1 C101.673333,10.1 101.861667,10.02 102.025,9.86 C102.188333,9.7 102.27,9.51 102.27,9.29 C102.27,9.06333333 102.19,8.87 102.03,8.71 C101.87,8.55 101.68,8.47 101.46,8.47 C101.233333,8.47 101.038333,8.55 100.875,8.71 C100.711667,8.87 100.63,9.06333333 100.63,9.29 C100.63,9.51 100.711667,9.7 100.875,9.86 C101.038333,10.02 101.233333,10.1 101.46,10.1 Z M103.28,16 C103.306667,16 103.33,15.99 103.35,15.97 C103.37,15.95 103.38,15.9233333 103.38,15.89 L103.38,15.89 L103.38,14.5 C103.38,14.4333333 103.346667,14.4 103.28,14.4 L103.28,14.4 L102.62,14.4 C102.68,14 102.71,13.67 102.71,13.41 C102.71,12.6366667 102.506667,12.0333333 102.1,11.6 C101.693333,11.1666667 101.123333,10.95 100.39,10.95 C99.97,10.95 99.59,11.0416667 99.25,11.225 C98.91,11.4083333 98.6433333,11.66 98.45,11.98 C98.2566667,12.3 98.16,12.6533333 98.16,13.04 C98.16,13.58 98.3233333,14.0333333 98.65,14.4 L98.65,14.4 L97.76,14.4 C97.6933333,14.4 97.66,14.4333333 97.66,14.5 L97.66,14.5 L97.66,15.89 C97.66,15.9233333 97.67,15.95 97.69,15.97 C97.71,15.99 97.7333333,16 97.76,16 L97.76,16 L103.28,16 Z M100.89,14.4 L100.78,14.4 C100.426667,14.4 100.14,14.315 99.92,14.145 C99.7,13.975 99.59,13.7533333 99.59,13.48 C99.59,13.26 99.6516667,13.0833333 99.775,12.95 C99.8983333,12.8166667 100.063333,12.75 100.27,12.75 C100.49,12.75 100.668333,12.8233333 100.805,12.97 C100.941667,13.1166667 101.01,13.31 101.01,13.55 C101.01,13.73 100.97,14.0133333 100.89,14.4 L100.89,14.4 Z M94.54,16 C95.3333333,16 95.9433333,15.8133333 96.37,15.44 C96.6633333,15.8133333 97.1266667,16 97.76,16 C97.7866667,16 97.81,15.99 97.83,15.97 C97.85,15.95 97.86,15.9233333 97.86,15.89 L97.86,15.89 L97.86,14.5 C97.86,14.4333333 97.8266667,14.4 97.76,14.4 C97.5,14.4 97.31,14.3233333 97.19,14.17 C97.07,14.0166667 97.01,13.77 97.01,13.43 L97.01,13.43 L97.01,13.34 C97.01,12.5866667 96.8316667,12 96.475,11.58 C96.1183333,11.16 95.6233333,10.95 94.99,10.95 C94.6033333,10.95 94.1833333,11.08 93.73,11.34 C93.2766667,11.6 92.8733333,11.9533333 92.52,12.4 L92.52,12.4 L92.52,8.7 L90.82,8.89 L90.82,14.4 L90.11,14.4 C90.0433333,14.4 90.01,14.4333333 90.01,14.5 L90.01,14.5 L89.99,15.89 C89.99,15.9233333 90,15.95 90.02,15.97 C90.04,15.99 90.0633333,16 90.09,16 L90.09,16 L94.54,16 Z M94.56,14.4 L92.52,14.4 L92.52,14.11 C92.7866667,13.7166667 93.0983333,13.3983333 93.455,13.155 C93.8116667,12.9116667 94.1466667,12.79 94.46,12.79 C94.74,12.79 94.9516667,12.8666667 95.095,13.02 C95.2383333,13.1733333 95.31,13.3966667 95.31,13.69 L95.31,13.69 L95.31,13.75 C95.31,13.9366667 95.2416667,14.0916667 95.105,14.215 C94.9683333,14.3383333 94.7866667,14.4 94.56,14.4 L94.56,14.4 Z M85.65,18.15 C86.6166667,18.15 87.3833333,18.0783333 87.95,17.935 C88.5166667,17.7916667 88.9316667,17.565 89.195,17.255 C89.4583333,16.945 89.6033333,16.5266667 89.63,16 L89.63,16 L90.09,16 C90.1166667,16 90.14,15.99 90.16,15.97 C90.18,15.95 90.19,15.9233333 90.19,15.89 L90.19,15.89 L90.19,14.5 C90.19,14.4333333 90.1566667,14.4 90.09,14.4 L90.09,14.4 L89.64,14.4 L89.64,13.5 C89.64,12.98 89.5433333,12.5266667 89.35,12.14 C89.1566667,11.7533333 88.8866667,11.4583333 88.54,11.255 C88.1933333,11.0516667 87.7933333,10.95 87.34,10.95 C86.8866667,10.95 86.4783333,11.055 86.115,11.265 C85.7516667,11.475 85.4683333,11.7683333 85.265,12.145 C85.0616667,12.5216667 84.96,12.9533333 84.96,13.44 C84.96,13.94 85.0666667,14.3833333 85.28,14.77 C85.4933333,15.1566667 85.7883333,15.4583333 86.165,15.675 C86.5416667,15.8916667 86.9633333,16 87.43,16 L87.43,16 L87.92,16 C87.8933333,16.1933333 87.8166667,16.3433333 87.69,16.45 C87.5633333,16.5566667 87.3433333,16.6333333 87.03,16.68 C86.7166667,16.7266667 86.2566667,16.75 85.65,16.75 L85.65,16.75 L85.65,18.15 Z M87.94,14.4 L87.58,14.4 C87.2866667,14.4 87.03,14.32 86.81,14.16 C86.59,14 86.48,13.78 86.48,13.5 C86.48,13.28 86.5416667,13.1033333 86.665,12.97 C86.7883333,12.8366667 86.9466667,12.77 87.14,12.77 C87.3933333,12.77 87.59,12.8533333 87.73,13.02 C87.87,13.1866667 87.94,13.42 87.94,13.72 L87.94,13.72 L87.94,14.4 Z M81.23,18.15 C81.9566667,18.15 82.5383333,18.0716667 82.975,17.915 C83.4116667,17.7583333 83.7316667,17.5083333 83.935,17.165 C84.1383333,16.8216667 84.24,16.36 84.24,15.78 L84.24,15.78 L84.24,11.4 L82.53,11.6 L82.54,15.6 C82.54,15.9733333 82.4216667,16.25 82.185,16.43 C81.9483333,16.61 81.63,16.7 81.23,16.7 L81.23,16.7 L81.23,18.15 Z M77.47,10.1 C77.6966667,10.1 77.8916667,10.02 78.055,9.86 C78.2183333,9.7 78.3,9.51 78.3,9.29 C78.3,9.06333333 78.2183333,8.87 78.055,8.71 C77.8916667,8.55 77.6966667,8.47 77.47,8.47 C77.25,8.47 77.06,8.55 76.9,8.71 C76.74,8.87 76.66,9.06333333 76.66,9.29 C76.66,9.51 76.7416667,9.7 76.905,9.86 C77.0683333,10.02 77.2566667,10.1 77.47,10.1 Z M79.67,10.1 C79.8833333,10.1 80.0716667,10.02 80.235,9.86 C80.3983333,9.7 80.48,9.51 80.48,9.29 C80.48,9.06333333 80.4,8.87 80.24,8.71 C80.08,8.55 79.89,8.47 79.67,8.47 C79.4433333,8.47 79.2483333,8.55 79.085,8.71 C78.9216667,8.87 78.84,9.06333333 78.84,9.29 C78.84,9.51 78.9216667,9.7 79.085,9.86 C79.2483333,10.02 79.4433333,10.1 79.67,10.1 Z M78.57,16.09 C79.0366667,16.09 79.445,15.98 79.795,15.76 C80.145,15.54 80.4133333,15.2383333 80.6,14.855 C80.7866667,14.4716667 80.88,14.04 80.88,13.56 C80.88,13.08 80.7866667,12.6416667 80.6,12.245 C80.4133333,11.8483333 80.145,11.5333333 79.795,11.3 C79.445,11.0666667 79.0366667,10.95 78.57,10.95 C78.1033333,10.95 77.6966667,11.07 77.35,11.31 C77.0033333,11.55 76.7366667,11.87 76.55,12.27 C76.3633333,12.67 76.27,13.1 76.27,13.56 C76.27,14.04 76.3633333,14.4716667 76.55,14.855 C76.7366667,15.2383333 77.0033333,15.54 77.35,15.76 C77.6966667,15.98 78.1033333,16.09 78.57,16.09 Z M78.57,14.49 C78.3033333,14.49 78.1033333,14.4 77.97,14.22 C77.8366667,14.04 77.77,13.8233333 77.77,13.57 C77.77,13.27 77.84,13.025 77.98,12.835 C78.12,12.645 78.3166667,12.55 78.57,12.55 C78.8233333,12.55 79.0216667,12.645 79.165,12.835 C79.3083333,13.025 79.38,13.27 79.38,13.57 C79.38,13.8233333 79.3116667,14.04 79.175,14.22 C79.0383333,14.4 78.8366667,14.49 78.57,14.49 Z" id="trailer-ar"></path>
            </g>
        </g>
    </g>
</svg>